M48
INCH
T01C0.0400
T02C0.0300
%
T01
X-002566Y-010393
X-003566Y-010393
X-004566Y-010393
X-005566Y-010393
X-006566Y-010393
X-007566Y-010393
X-007614Y+008661
X-006614Y+008661
X-005614Y+008661
X-004614Y+008661
X-003614Y+008661
X-002614Y+008661
X-001614Y+008661
X-000614Y+008661
X+000988Y+008653
X+001988Y+008653
X+002988Y+008653
X+003988Y+008653
X+004988Y+008653
X+005988Y+008653
X+006988Y+008653
X+007988Y+008653
X+004425Y-010393
X+003425Y-010393
X+002425Y-010393
X+001425Y-010393
X+000425Y-010393
X-000574Y-010393
X+002010Y-001686
X+001010Y-001686
X+000010Y-001686
X-000990Y-001686
X-001990Y-001686
X-002990Y-001686
X-003990Y-001686
X-004990Y-001686
X-005990Y-001686
X-006990Y-001686
X-007990Y-001686
X-008990Y-001686
X-009990Y-001686
X-010990Y-001686
X-011990Y-001686
X-012990Y-001686
X-013990Y-001686
X-014990Y-001686
T02
X-000062Y-006299
X-002062Y-006299
X-001062Y-006299
M30
