  0
SECTION
  2
HEADER
  9
$ACADVER
  1
AC1006
  9
$EXTMIN
 10
0.0
 20
0.0
  9
$EXTMAX
 10
90.086174
 20
88.485977
  9
$LTSCALE
 40
0.000394
  9
$PDMODE
 70
35
  9
$PDSIZE
 40
0.000315
  0
ENDSEC
  0
SECTION
  2
TABLES
  0
TABLE
  2
LTYPE
 70
  9
  0
LTYPE
  2
CONTINUOUS
 70
 64
  3
Solid line
 72
 65
 73
  0
 40
0.000000
  0
LTYPE
  2
DASHED
 70
 64
  3
__ __ __ __ __ __ __ __ __ __ __ __ __ __ __
 72
 65
 73
  2
 40
0.000003
 49
0.000002
 49
-0.000001
  0
LTYPE
  2
HIDDEN
 70
 64
  3
 _ _ _ _ _ _ _ _ _ _ _ _ _ _ _ _ _ _ _ _ _ _
 72
 65
 73
  2
 40
0.000001
 49
0.000001
 49
-0.000000
  0
LTYPE
  2
CENTER
 70
 64
  3
____ _ ____ _ ____ _ ____ _ ____ _ ____ _ ____
 72
 65
 73
  4
 40
0.000008
 49
0.000005
 49
-0.000001
 49
0.000001
 49
-0.000001
  0
LTYPE
  2
PHANTOM
 70
 64
  3
_____ _ _ _____ _ _ _____ _ _ _____ _ _ ____
 72
 65
 73
  6
 40
0.000010
 49
0.000005
 49
-0.000001
 49
0.000001
 49
-0.000001
 49
0.000001
 49
-0.000001
  0
LTYPE
  2
DOT
 70
 64
  3
...............................................
 72
 65
 73
  2
 40
0.000001
 49
0.000000
 49
-0.000001
  0
LTYPE
  2
DASHDOT
 70
 64
  3
__ . __ . __ . __ . __ . __ . __ . __ . __ . __
 72
 65
 73
  4
 40
0.000004
 49
0.000002
 49
-0.000001
 49
0.000000
 49
-0.000001
  0
LTYPE
  2
BORDER
 70
 64
  3
__ __ . __ __ . __ __ . __ __ . __ __ . __ __
 72
 65
 73
  6
 40
0.000007
 49
0.000002
 49
-0.000001
 49
0.000002
 49
-0.000001
 49
0.000000
 49
-0.000001
  0
LTYPE
  2
DIVIDE
 70
 64
  3
__ . . __ . . __ . . __ . . __ . . __ . . __
 72
 65
 73
  6
 40
0.000005
 49
0.000002
 49
-0.000001
 49
0.000000
 49
-0.000001
 49
0.000000
 49
-0.000001
  0
LTYPE
  2
DOTDOT
 70
 64
  3
 . .  . .  . .  . .  . .  . .
 72
 65
 73
  5
 40
0.000002
 49
-0.000001
 49
0.000000
 49
-0.000001
 49
0.000000
 49
-0.000001
  0
ENDTAB
  0
TABLE
  2
STYLE
 70
  0
  0
ENDTAB
  0
TABLE
  2
LAYER
 70
  4
  0
LAYER
  2
FOREGROUND
 70
 64
 62
  7
  6
CONTINUOUS
  0
LAYER
  2
BACKGROUND
 70
 65
 62
 -7
  6
CONTINUOUS
  0
LAYER
  2
PLAN_1
 70
 64
 62
  7
  6
CONTINUOUS
  0
ENDTAB
  0
ENDSEC
  0
SECTION
  2
ENTITIES
  0
LINE
  8
PLAN_1
 62
7
 10
-5.457558
 20
-25.338137
 30
0.25
 11
-7.577721
 21
-25.338137
 31
0.25
  0
LINE
  8
PLAN_1
 62
7
 10
-7.577721
 20
-25.338137
 30
0.25
 11
-7.577721
 21
-27.4583
 31
0.25
  0
LINE
  8
PLAN_1
 62
7
 10
-7.577721
 20
-27.4583
 30
0.25
 11
-5.457558
 21
-27.4583
 31
0.25
  0
LINE
  8
PLAN_1
 62
7
 10
-5.457558
 20
-27.4583
 30
0.25
 11
-5.457558
 21
-25.338137
 31
0.25
  0
LINE
  8
PLAN_1
 62
7
 10
-7.997559
 20
-25.338137
 30
0.25
 11
-10.117722
 21
-25.338137
 31
0.25
  0
LINE
  8
PLAN_1
 62
7
 10
-10.117722
 20
-25.338137
 30
0.25
 11
-10.117722
 21
-27.4583
 31
0.25
  0
LINE
  8
PLAN_1
 62
7
 10
-10.117722
 20
-27.4583
 30
0.25
 11
-7.997559
 21
-27.4583
 31
0.25
  0
LINE
  8
PLAN_1
 62
7
 10
-7.997559
 20
-27.4583
 30
0.25
 11
-7.997559
 21
-25.338137
 31
0.25
  0
LINE
  8
PLAN_1
 62
7
 10
-2.51804
 20
-25.338137
 30
0.25
 11
-2.51804
 21
-27.4583
 31
0.25
  0
LINE
  8
PLAN_1
 62
7
 10
-2.51804
 20
-27.4583
 30
0.25
 11
-0.397877
 21
-27.4583
 31
0.25
  0
LINE
  8
PLAN_1
 62
7
 10
-0.397877
 20
-27.4583
 30
0.25
 11
-0.397877
 21
-25.338137
 31
0.25
  0
LINE
  8
PLAN_1
 62
7
 10
-0.397877
 20
-25.338137
 30
0.25
 11
-2.51804
 21
-25.338137
 31
0.25
  0
LINE
  8
PLAN_1
 62
7
 10
-10.53756
 20
-25.338137
 30
0.25
 11
-12.657722
 21
-25.338137
 31
0.25
  0
LINE
  8
PLAN_1
 62
7
 10
-12.657722
 20
-25.338137
 30
0.25
 11
-12.657722
 21
-27.4583
 31
0.25
  0
LINE
  8
PLAN_1
 62
7
 10
-12.657722
 20
-27.4583
 30
0.25
 11
-10.53756
 21
-27.4583
 31
0.25
  0
LINE
  8
PLAN_1
 62
7
 10
-10.53756
 20
-27.4583
 30
0.25
 11
-10.53756
 21
-25.338137
 31
0.25
  0
LINE
  8
PLAN_1
 62
7
 10
12.961735
 20
-29.59256
 30
0.25
 11
13.087513
 21
-29.51207
 31
0.25
  0
LINE
  8
PLAN_1
 62
7
 10
13.087513
 20
-29.51207
 30
0.25
 11
14.387989
 21
-28.310652
 31
0.25
  0
LINE
  8
PLAN_1
 62
7
 10
14.387989
 20
-28.310652
 30
0.25
 11
14.400112
 21
-28.298996
 31
0.25
  0
LINE
  8
PLAN_1
 62
7
 10
14.400112
 20
-28.298996
 30
0.25
 11
14.49226
 21
-28.161089
 31
0.25
  0
LINE
  8
PLAN_1
 62
7
 10
14.49226
 20
-28.161089
 30
0.25
 11
14.524616
 21
-27.998417
 31
0.25
  0
LINE
  8
PLAN_1
 62
7
 10
14.524616
 20
-27.998417
 30
0.25
 11
14.524616
 21
-23.898857
 31
0.25
  0
LINE
  8
PLAN_1
 62
7
 10
14.524616
 20
-23.898857
 30
0.25
 11
14.49226
 21
-23.736185
 31
0.25
  0
LINE
  8
PLAN_1
 62
7
 10
14.49226
 20
-23.736185
 30
0.25
 11
14.400112
 21
-23.598278
 31
0.25
  0
LINE
  8
PLAN_1
 62
7
 10
14.400112
 20
-23.598278
 30
0.25
 11
14.262211
 21
-23.506132
 31
0.25
  0
LINE
  8
PLAN_1
 62
7
 10
14.262211
 20
-23.506132
 30
0.25
 11
14.099537
 21
-23.473776
 31
0.25
  0
LINE
  8
PLAN_1
 62
7
 10
14.099537
 20
-23.473776
 30
0.25
 11
10.495426
 21
-23.473776
 31
0.25
  0
LINE
  8
PLAN_1
 62
7
 10
10.495426
 20
-23.473776
 30
0.25
 11
5.423801
 21
-17.546757
 31
0.25
  0
LINE
  8
PLAN_1
 62
7
 10
5.423801
 20
-17.546757
 30
0.25
 11
5.423801
 21
-5.342522
 31
0.25
  0
LINE
  8
PLAN_1
 62
7
 10
5.423801
 20
-5.342522
 30
0.25
 11
6.165482
 21
-5.342522
 31
0.25
  0
LINE
  8
PLAN_1
 62
7
 10
6.165482
 20
-5.342522
 30
0.25
 11
6.165482
 21
-3.222359
 31
0.25
  0
LINE
  8
PLAN_1
 62
7
 10
6.165482
 20
-3.222359
 30
0.25
 11
4.045319
 21
-3.222359
 31
0.25
  0
LINE
  8
PLAN_1
 62
7
 10
4.045319
 20
-3.222359
 30
0.25
 11
4.045319
 21
-5.342522
 31
0.25
  0
LINE
  8
PLAN_1
 62
7
 10
4.045319
 20
-5.342522
 30
0.25
 11
4.573635
 21
-5.342522
 31
0.25
  0
LINE
  8
PLAN_1
 62
7
 10
4.573635
 20
-5.342522
 30
0.25
 11
4.573635
 21
-17.703798
 31
0.25
  0
LINE
  8
PLAN_1
 62
7
 10
4.573635
 20
-17.703798
 30
0.25
 11
4.605995
 21
-17.86647
 31
0.25
  0
LINE
  8
PLAN_1
 62
7
 10
4.605995
 20
-17.86647
 30
0.25
 11
4.675739
 21
-17.980165
 31
0.25
  0
LINE
  8
PLAN_1
 62
7
 10
4.675739
 20
-17.980165
 30
0.25
 11
9.976715
 21
-24.175224
 31
0.25
  0
LINE
  8
PLAN_1
 62
7
 10
9.976715
 20
-24.175224
 30
0.25
 11
9.999115
 21
-24.199436
 31
0.25
  0
LINE
  8
PLAN_1
 62
7
 10
9.999115
 20
-24.199436
 30
0.25
 11
10.13702
 21
-24.291582
 31
0.25
  0
LINE
  8
PLAN_1
 62
7
 10
10.13702
 20
-24.291582
 30
0.25
 11
10.299694
 21
-24.323938
 31
0.25
  0
LINE
  8
PLAN_1
 62
7
 10
10.299694
 20
-24.323938
 30
0.25
 11
13.674458
 21
-24.323938
 31
0.25
  0
LINE
  8
PLAN_1
 62
7
 10
13.674458
 20
-24.323938
 30
0.25
 11
13.674458
 21
-27.812403
 31
0.25
  0
LINE
  8
PLAN_1
 62
7
 10
13.674458
 20
-27.812403
 30
0.25
 11
12.632763
 21
-28.774755
 31
0.25
  0
LINE
  8
PLAN_1
 62
7
 10
12.632763
 20
-28.774755
 30
0.25
 11
4.171581
 21
-28.774755
 31
0.25
  0
LINE
  8
PLAN_1
 62
7
 10
4.171581
 20
-28.774755
 30
0.25
 11
4.171581
 21
-27.939997
 31
0.25
  0
LINE
  8
PLAN_1
 62
7
 10
4.171581
 20
-27.939997
 30
0.25
 11
4.171581
 21
-27.4583
 31
0.25
  0
LINE
  8
PLAN_1
 62
7
 10
4.171581
 20
-27.4583
 30
0.25
 11
4.679581
 21
-27.4583
 31
0.25
  0
LINE
  8
PLAN_1
 62
7
 10
4.679581
 20
-27.4583
 30
0.25
 11
4.679581
 21
-25.338137
 31
0.25
  0
LINE
  8
PLAN_1
 62
7
 10
4.679581
 20
-25.338137
 30
0.25
 11
2.559418
 21
-25.338137
 31
0.25
  0
LINE
  8
PLAN_1
 62
7
 10
2.559418
 20
-25.338137
 30
0.25
 11
2.559418
 21
-27.4583
 31
0.25
  0
LINE
  8
PLAN_1
 62
7
 10
2.559418
 20
-27.4583
 30
0.25
 11
3.067417
 21
-27.4583
 31
0.25
  0
LINE
  8
PLAN_1
 62
7
 10
3.067417
 20
-27.4583
 30
0.25
 11
3.067417
 21
-27.939997
 31
0.25
  0
LINE
  8
PLAN_1
 62
7
 10
3.067417
 20
-27.939997
 30
0.25
 11
3.067417
 21
-28.774755
 31
0.25
  0
LINE
  8
PLAN_1
 62
7
 10
3.067417
 20
-28.774755
 30
0.25
 11
1.63158
 21
-28.774755
 31
0.25
  0
LINE
  8
PLAN_1
 62
7
 10
1.63158
 20
-28.774755
 30
0.25
 11
1.63158
 21
-27.4583
 31
0.25
  0
LINE
  8
PLAN_1
 62
7
 10
1.63158
 20
-27.4583
 30
0.25
 11
2.13958
 21
-27.4583
 31
0.25
  0
LINE
  8
PLAN_1
 62
7
 10
2.13958
 20
-27.4583
 30
0.25
 11
2.13958
 21
-25.338137
 31
0.25
  0
LINE
  8
PLAN_1
 62
7
 10
2.13958
 20
-25.338137
 30
0.25
 11
0.019417
 21
-25.338137
 31
0.25
  0
LINE
  8
PLAN_1
 62
7
 10
0.019417
 20
-25.338137
 30
0.25
 11
0.019417
 21
-27.4583
 31
0.25
  0
LINE
  8
PLAN_1
 62
7
 10
0.019417
 20
-27.4583
 30
0.25
 11
0.527416
 21
-27.4583
 31
0.25
  0
LINE
  8
PLAN_1
 62
7
 10
0.527416
 20
-27.4583
 30
0.25
 11
0.527416
 21
-28.771492
 31
0.25
  0
LINE
  8
PLAN_1
 62
7
 10
0.527416
 20
-28.771492
 30
0.25
 11
-30.183258
 21
-28.590376
 31
0.25
  0
LINE
  8
PLAN_1
 62
7
 10
-30.183258
 20
-28.590376
 30
0.25
 11
-32.486359
 21
-26.282686
 31
0.25
  0
LINE
  8
PLAN_1
 62
7
 10
-32.486359
 20
-26.282686
 30
0.25
 11
-32.565506
 21
-5.342522
 31
0.25
  0
LINE
  8
PLAN_1
 62
7
 10
-32.565506
 20
-5.342522
 30
0.25
 11
-31.934517
 21
-5.342522
 31
0.25
  0
LINE
  8
PLAN_1
 62
7
 10
-31.934517
 20
-5.342522
 30
0.25
 11
-31.934517
 21
-3.222359
 31
0.25
  0
LINE
  8
PLAN_1
 62
7
 10
-31.934517
 20
-3.222359
 30
0.25
 11
-34.05468
 21
-3.222359
 31
0.25
  0
LINE
  8
PLAN_1
 62
7
 10
-34.05468
 20
-3.222359
 30
0.25
 11
-34.05468
 21
-5.342522
 31
0.25
  0
LINE
  8
PLAN_1
 62
7
 10
-34.05468
 20
-5.342522
 30
0.25
 11
-33.415676
 21
-5.342522
 31
0.25
  0
LINE
  8
PLAN_1
 62
7
 10
-33.415676
 20
-5.342522
 30
0.25
 11
-33.335861
 21
-26.459196
 31
0.25
  0
LINE
  8
PLAN_1
 62
7
 10
-33.335861
 20
-26.459196
 30
0.25
 11
-33.319519
 21
-26.541338
 31
0.25
  0
LINE
  8
PLAN_1
 62
7
 10
-33.319519
 20
-26.541338
 30
0.25
 11
-33.302887
 21
-26.623331
 31
0.25
  0
LINE
  8
PLAN_1
 62
7
 10
-33.302887
 20
-26.623331
 30
0.25
 11
-33.262482
 21
-26.68331
 31
0.25
  0
LINE
  8
PLAN_1
 62
7
 10
-33.262482
 20
-26.68331
 30
0.25
 11
-33.21022
 21
-26.760889
 31
0.25
  0
LINE
  8
PLAN_1
 62
7
 10
-33.21022
 20
-26.760889
 30
0.25
 11
-30.661495
 21
-29.314697
 31
0.25
  0
LINE
  8
PLAN_1
 62
7
 10
-30.661495
 20
-29.314697
 30
0.25
 11
-30.523291
 21
-29.407143
 31
0.25
  0
LINE
  8
PLAN_1
 62
7
 10
-30.523291
 20
-29.407143
 30
0.25
 11
-30.360619
 21
-29.439499
 31
0.25
  0
LINE
  8
PLAN_1
 62
7
 10
-30.360619
 20
-29.439499
 30
0.25
 11
0.738049
 21
-29.622913
 31
0.25
  0
LINE
  8
PLAN_1
 62
7
 10
0.738049
 20
-29.622913
 30
0.25
 11
0.868225
 21
-29.709892
 31
0.25
  0
LINE
  8
PLAN_1
 62
7
 10
0.868225
 20
-29.709892
 30
0.25
 11
1.079498
 21
-29.751919
 31
0.25
  0
LINE
  8
PLAN_1
 62
7
 10
1.079498
 20
-29.751919
 30
0.25
 11
1.290771
 21
-29.709892
 31
0.25
  0
LINE
  8
PLAN_1
 62
7
 10
1.290771
 20
-29.709892
 30
0.25
 11
1.417946
 21
-29.624918
 31
0.25
  0
LINE
  8
PLAN_1
 62
7
 10
1.417946
 20
-29.624918
 30
0.25
 11
3.281052
 21
-29.624918
 31
0.25
  0
LINE
  8
PLAN_1
 62
7
 10
3.281052
 20
-29.624918
 30
0.25
 11
3.408226
 21
-29.709892
 31
0.25
  0
LINE
  8
PLAN_1
 62
7
 10
3.408226
 20
-29.709892
 30
0.25
 11
3.619499
 21
-29.751919
 31
0.25
  0
LINE
  8
PLAN_1
 62
7
 10
3.619499
 20
-29.751919
 30
0.25
 11
3.830772
 21
-29.709894
 31
0.25
  0
LINE
  8
PLAN_1
 62
7
 10
3.830772
 20
-29.709894
 30
0.25
 11
3.957947
 21
-29.624918
 31
0.25
  0
LINE
  8
PLAN_1
 62
7
 10
3.957947
 20
-29.624918
 30
0.25
 11
12.799061
 21
-29.624918
 31
0.25
  0
LINE
  8
PLAN_1
 62
7
 10
12.799061
 20
-29.624918
 30
0.25
 11
12.961735
 21
-29.59256
 31
0.25
  0
LINE
  8
PLAN_1
 62
7
 10
12.961735
 20
-29.59256
 30
0.25
 11
13.099636
 21
-29.500416
 31
0.25
  0
LINE
  8
PLAN_1
 62
7
 10
-13.077557
 20
-25.338137
 30
0.25
 11
-15.19772
 21
-25.338137
 31
0.25
  0
LINE
  8
PLAN_1
 62
7
 10
-15.19772
 20
-25.338137
 30
0.25
 11
-15.19772
 21
-27.4583
 31
0.25
  0
LINE
  8
PLAN_1
 62
7
 10
-15.19772
 20
-27.4583
 30
0.25
 11
-13.077557
 21
-27.4583
 31
0.25
  0
LINE
  8
PLAN_1
 62
7
 10
-13.077557
 20
-27.4583
 30
0.25
 11
-13.077557
 21
-25.338137
 31
0.25
  0
LINE
  8
PLAN_1
 62
7
 10
-5.23748
 20
-17.05954
 30
0.25
 11
-5.03067
 21
-17.039171
 31
0.25
  0
LINE
  8
PLAN_1
 62
7
 10
-5.03067
 20
-17.039171
 30
0.25
 11
-4.831806
 21
-16.978846
 31
0.25
  0
LINE
  8
PLAN_1
 62
7
 10
-4.831806
 20
-16.978846
 30
0.25
 11
-4.648529
 21
-16.880884
 31
0.25
  0
LINE
  8
PLAN_1
 62
7
 10
-4.648529
 20
-16.880884
 30
0.25
 11
-4.487888
 21
-16.74905
 31
0.25
  0
LINE
  8
PLAN_1
 62
7
 10
-4.487888
 20
-16.74905
 30
0.25
 11
-4.356056
 21
-16.588408
 31
0.25
  0
LINE
  8
PLAN_1
 62
7
 10
-4.356056
 20
-16.588408
 30
0.25
 11
-4.258091
 21
-16.405134
 31
0.25
  0
LINE
  8
PLAN_1
 62
7
 10
-4.258091
 20
-16.405134
 30
0.25
 11
-4.197769
 21
-16.20627
 31
0.25
  0
LINE
  8
PLAN_1
 62
7
 10
-4.197769
 20
-16.20627
 30
0.25
 11
-4.177399
 21
-15.999458
 31
0.25
  0
LINE
  8
PLAN_1
 62
7
 10
-4.177399
 20
-15.999458
 30
0.25
 11
-4.197769
 21
-15.792646
 31
0.25
  0
LINE
  8
PLAN_1
 62
7
 10
-4.197769
 20
-15.792646
 30
0.25
 11
-4.258091
 21
-15.593782
 31
0.25
  0
LINE
  8
PLAN_1
 62
7
 10
-4.258091
 20
-15.593782
 30
0.25
 11
-4.356056
 21
-15.410509
 31
0.25
  0
LINE
  8
PLAN_1
 62
7
 10
-4.356056
 20
-15.410509
 30
0.25
 11
-4.487888
 21
-15.249866
 31
0.25
  0
LINE
  8
PLAN_1
 62
7
 10
-4.487888
 20
-15.249866
 30
0.25
 11
-4.616798
 21
-15.144072
 31
0.25
  0
LINE
  8
PLAN_1
 62
7
 10
-4.616798
 20
-15.144072
 30
0.25
 11
-4.583313
 21
-14.98982
 31
0.25
  0
LINE
  8
PLAN_1
 62
7
 10
-4.583313
 20
-14.98982
 30
0.25
 11
-4.573635
 21
-14.899639
 31
0.25
  0
LINE
  8
PLAN_1
 62
7
 10
-4.573635
 20
-14.899639
 30
0.25
 11
-4.573635
 21
-5.342522
 31
0.25
  0
LINE
  8
PLAN_1
 62
7
 10
-4.573635
 20
-5.342522
 30
0.25
 11
-3.994518
 21
-5.342522
 31
0.25
  0
LINE
  8
PLAN_1
 62
7
 10
-3.994518
 20
-5.342522
 30
0.25
 11
-3.994518
 21
-3.222359
 31
0.25
  0
LINE
  8
PLAN_1
 62
7
 10
-3.994518
 20
-3.222359
 30
0.25
 11
-6.114681
 21
-3.222359
 31
0.25
  0
LINE
  8
PLAN_1
 62
7
 10
-6.114681
 20
-3.222359
 30
0.25
 11
-6.114681
 21
-5.342522
 31
0.25
  0
LINE
  8
PLAN_1
 62
7
 10
-6.114681
 20
-5.342522
 30
0.25
 11
-5.423801
 21
-5.342522
 31
0.25
  0
LINE
  8
PLAN_1
 62
7
 10
-5.423801
 20
-5.342522
 30
0.25
 11
-5.423801
 21
-14.854038
 31
0.25
  0
LINE
  8
PLAN_1
 62
7
 10
-5.423801
 20
-14.854038
 30
0.25
 11
-5.446922
 21
-14.960545
 31
0.25
  0
LINE
  8
PLAN_1
 62
7
 10
-5.446922
 20
-14.960545
 30
0.25
 11
-5.643154
 21
-15.020071
 31
0.25
  0
LINE
  8
PLAN_1
 62
7
 10
-5.643154
 20
-15.020071
 30
0.25
 11
-5.826431
 21
-15.118032
 31
0.25
  0
LINE
  8
PLAN_1
 62
7
 10
-5.826431
 20
-15.118032
 30
0.25
 11
-5.987072
 21
-15.249866
 31
0.25
  0
LINE
  8
PLAN_1
 62
7
 10
-5.987072
 20
-15.249866
 30
0.25
 11
-6.118904
 21
-15.410509
 31
0.25
  0
LINE
  8
PLAN_1
 62
7
 10
-6.118904
 20
-15.410509
 30
0.25
 11
-6.216869
 21
-15.593782
 31
0.25
  0
LINE
  8
PLAN_1
 62
7
 10
-6.216869
 20
-15.593782
 30
0.25
 11
-6.277191
 21
-15.792646
 31
0.25
  0
LINE
  8
PLAN_1
 62
7
 10
-6.277191
 20
-15.792646
 30
0.25
 11
-6.297562
 21
-15.999458
 31
0.25
  0
LINE
  8
PLAN_1
 62
7
 10
-6.297562
 20
-15.999458
 30
0.25
 11
-6.277191
 21
-16.20627
 31
0.25
  0
LINE
  8
PLAN_1
 62
7
 10
-6.277191
 20
-16.20627
 30
0.25
 11
-6.216869
 21
-16.405134
 31
0.25
  0
LINE
  8
PLAN_1
 62
7
 10
-6.216869
 20
-16.405134
 30
0.25
 11
-6.118904
 21
-16.588408
 31
0.25
  0
LINE
  8
PLAN_1
 62
7
 10
-6.118904
 20
-16.588408
 30
0.25
 11
-5.987072
 21
-16.749048
 31
0.25
  0
LINE
  8
PLAN_1
 62
7
 10
-5.987072
 20
-16.749048
 30
0.25
 11
-5.826431
 21
-16.880884
 31
0.25
  0
LINE
  8
PLAN_1
 62
7
 10
-5.826431
 20
-16.880884
 30
0.25
 11
-5.643154
 21
-16.978846
 31
0.25
  0
LINE
  8
PLAN_1
 62
7
 10
-5.643154
 20
-16.978846
 30
0.25
 11
-5.44429
 21
-17.039171
 31
0.25
  0
LINE
  8
PLAN_1
 62
7
 10
-5.44429
 20
-17.039171
 30
0.25
 11
-5.23748
 21
-17.05954
 31
0.25
  0
LINE
  8
PLAN_1
 62
7
 10
-2.904289
 20
-17.039171
 30
0.25
 11
-2.697479
 21
-17.05954
 31
0.25
  0
LINE
  8
PLAN_1
 62
7
 10
-2.697479
 20
-17.05954
 30
0.25
 11
-2.490669
 21
-17.039171
 31
0.25
  0
LINE
  8
PLAN_1
 62
7
 10
-2.490669
 20
-17.039171
 30
0.25
 11
-2.291805
 21
-16.978846
 31
0.25
  0
LINE
  8
PLAN_1
 62
7
 10
-2.291805
 20
-16.978846
 30
0.25
 11
-2.108528
 21
-16.880884
 31
0.25
  0
LINE
  8
PLAN_1
 62
7
 10
-2.108528
 20
-16.880884
 30
0.25
 11
-1.947887
 21
-16.74905
 31
0.25
  0
LINE
  8
PLAN_1
 62
7
 10
-1.947887
 20
-16.74905
 30
0.25
 11
-1.816055
 21
-16.588408
 31
0.25
  0
LINE
  8
PLAN_1
 62
7
 10
-1.816055
 20
-16.588408
 30
0.25
 11
-1.71809
 21
-16.405134
 31
0.25
  0
LINE
  8
PLAN_1
 62
7
 10
-1.71809
 20
-16.405134
 30
0.25
 11
-1.657768
 21
-16.20627
 31
0.25
  0
LINE
  8
PLAN_1
 62
7
 10
-1.657768
 20
-16.20627
 30
0.25
 11
-1.637398
 21
-15.999458
 31
0.25
  0
LINE
  8
PLAN_1
 62
7
 10
-1.637398
 20
-15.999458
 30
0.25
 11
-1.657768
 21
-15.792646
 31
0.25
  0
LINE
  8
PLAN_1
 62
7
 10
-1.657768
 20
-15.792646
 30
0.25
 11
-1.71809
 21
-15.593782
 31
0.25
  0
LINE
  8
PLAN_1
 62
7
 10
-1.71809
 20
-15.593782
 30
0.25
 11
-1.816055
 21
-15.410509
 31
0.25
  0
LINE
  8
PLAN_1
 62
7
 10
-1.816055
 20
-15.410509
 30
0.25
 11
-1.947887
 21
-15.249866
 31
0.25
  0
LINE
  8
PLAN_1
 62
7
 10
-1.947887
 20
-15.249866
 30
0.25
 11
-2.108528
 21
-15.118032
 31
0.25
  0
LINE
  8
PLAN_1
 62
7
 10
-2.108528
 20
-15.118032
 30
0.25
 11
-2.272396
 21
-15.030445
 31
0.25
  0
LINE
  8
PLAN_1
 62
7
 10
-2.272396
 20
-15.030445
 30
0.25
 11
-2.272396
 21
-9.873676
 31
0.25
  0
LINE
  8
PLAN_1
 62
7
 10
-2.272396
 20
-9.873676
 30
0.25
 11
0.30072
 21
-7.298138
 31
0.25
  0
LINE
  8
PLAN_1
 62
7
 10
0.30072
 20
-7.298138
 30
0.25
 11
0.347153
 21
-7.228577
 31
0.25
  0
LINE
  8
PLAN_1
 62
7
 10
0.347153
 20
-7.228577
 30
0.25
 11
0.392799
 21
-7.160187
 31
0.25
  0
LINE
  8
PLAN_1
 62
7
 10
0.392799
 20
-7.160187
 30
0.25
 11
0.409023
 21
-7.078423
 31
0.25
  0
LINE
  8
PLAN_1
 62
7
 10
0.409023
 20
-7.078423
 30
0.25
 11
0.425083
 21
-6.9977
 31
0.25
  0
LINE
  8
PLAN_1
 62
7
 10
0.425083
 20
-6.9977
 30
0.25
 11
0.425083
 21
-5.342522
 31
0.25
  0
LINE
  8
PLAN_1
 62
7
 10
0.425083
 20
-5.342522
 30
0.25
 11
1.08548
 21
-5.342522
 31
0.25
  0
LINE
  8
PLAN_1
 62
7
 10
1.08548
 20
-5.342522
 30
0.25
 11
1.08548
 21
-3.222359
 31
0.25
  0
LINE
  8
PLAN_1
 62
7
 10
1.08548
 20
-3.222359
 30
0.25
 11
-1.034683
 21
-3.222359
 31
0.25
  0
LINE
  8
PLAN_1
 62
7
 10
-1.034683
 20
-3.222359
 30
0.25
 11
-1.034683
 21
-5.342522
 31
0.25
  0
LINE
  8
PLAN_1
 62
7
 10
-1.034683
 20
-5.342522
 30
0.25
 11
-0.425083
 21
-5.342522
 31
0.25
  0
LINE
  8
PLAN_1
 62
7
 10
-0.425083
 20
-5.342522
 30
0.25
 11
-0.425083
 21
-6.821743
 31
0.25
  0
LINE
  8
PLAN_1
 62
7
 10
-0.425083
 20
-6.821743
 30
0.25
 11
-2.998058
 21
-9.397141
 31
0.25
  0
LINE
  8
PLAN_1
 62
7
 10
-2.998058
 20
-9.397141
 30
0.25
 11
-3.044632
 21
-9.466843
 31
0.25
  0
LINE
  8
PLAN_1
 62
7
 10
-3.044632
 20
-9.466843
 30
0.25
 11
-3.090202
 21
-9.535049
 31
0.25
  0
LINE
  8
PLAN_1
 62
7
 10
-3.090202
 20
-9.535049
 30
0.25
 11
-3.106503
 21
-9.616997
 31
0.25
  0
LINE
  8
PLAN_1
 62
7
 10
-3.106503
 20
-9.616997
 30
0.25
 11
-3.122562
 21
-9.69772
 31
0.25
  0
LINE
  8
PLAN_1
 62
7
 10
-3.122562
 20
-9.69772
 30
0.25
 11
-3.122562
 21
-15.030445
 31
0.25
  0
LINE
  8
PLAN_1
 62
7
 10
-3.122562
 20
-15.030445
 30
0.25
 11
-3.28643
 21
-15.118032
 31
0.25
  0
LINE
  8
PLAN_1
 62
7
 10
-3.28643
 20
-15.118032
 30
0.25
 11
-3.447071
 21
-15.249866
 31
0.25
  0
LINE
  8
PLAN_1
 62
7
 10
-3.447071
 20
-15.249866
 30
0.25
 11
-3.578903
 21
-15.410509
 31
0.25
  0
LINE
  8
PLAN_1
 62
7
 10
-3.578903
 20
-15.410509
 30
0.25
 11
-3.676868
 21
-15.593782
 31
0.25
  0
LINE
  8
PLAN_1
 62
7
 10
-3.676868
 20
-15.593782
 30
0.25
 11
-3.73719
 21
-15.792646
 31
0.25
  0
LINE
  8
PLAN_1
 62
7
 10
-3.73719
 20
-15.792646
 30
0.25
 11
-3.757561
 21
-15.999458
 31
0.25
  0
LINE
  8
PLAN_1
 62
7
 10
-3.757561
 20
-15.999458
 30
0.25
 11
-3.73719
 21
-16.20627
 31
0.25
  0
LINE
  8
PLAN_1
 62
7
 10
-3.73719
 20
-16.20627
 30
0.25
 11
-3.676868
 21
-16.405134
 31
0.25
  0
LINE
  8
PLAN_1
 62
7
 10
-3.676868
 20
-16.405134
 30
0.25
 11
-3.578903
 21
-16.588408
 31
0.25
  0
LINE
  8
PLAN_1
 62
7
 10
-3.578903
 20
-16.588408
 30
0.25
 11
-3.447071
 21
-16.749048
 31
0.25
  0
LINE
  8
PLAN_1
 62
7
 10
-3.447071
 20
-16.749048
 30
0.25
 11
-3.28643
 21
-16.880884
 31
0.25
  0
LINE
  8
PLAN_1
 62
7
 10
-3.28643
 20
-16.880884
 30
0.25
 11
-3.103153
 21
-16.978846
 31
0.25
  0
LINE
  8
PLAN_1
 62
7
 10
-3.103153
 20
-16.978846
 30
0.25
 11
-2.904289
 21
-17.039171
 31
0.25
  0
LINE
  8
PLAN_1
 62
7
 10
-0.746429
 20
-16.880884
 30
0.25
 11
-0.563152
 21
-16.978846
 31
0.25
  0
LINE
  8
PLAN_1
 62
7
 10
-0.563152
 20
-16.978846
 30
0.25
 11
-0.364288
 21
-17.039171
 31
0.25
  0
LINE
  8
PLAN_1
 62
7
 10
-0.364288
 20
-17.039171
 30
0.25
 11
-0.157478
 21
-17.05954
 31
0.25
  0
LINE
  8
PLAN_1
 62
7
 10
-0.157478
 20
-17.05954
 30
0.25
 11
0.049332
 21
-17.039171
 31
0.25
  0
LINE
  8
PLAN_1
 62
7
 10
0.049332
 20
-17.039171
 30
0.25
 11
0.248196
 21
-16.978846
 31
0.25
  0
LINE
  8
PLAN_1
 62
7
 10
0.248196
 20
-16.978846
 30
0.25
 11
0.431473
 21
-16.880884
 31
0.25
  0
LINE
  8
PLAN_1
 62
7
 10
0.431473
 20
-16.880884
 30
0.25
 11
0.592113
 21
-16.74905
 31
0.25
  0
LINE
  8
PLAN_1
 62
7
 10
0.592113
 20
-16.74905
 30
0.25
 11
0.723946
 21
-16.588408
 31
0.25
  0
LINE
  8
PLAN_1
 62
7
 10
0.723946
 20
-16.588408
 30
0.25
 11
0.811539
 21
-16.42454
 31
0.25
  0
LINE
  8
PLAN_1
 62
7
 10
0.811539
 20
-16.42454
 30
0.25
 11
2.140316
 21
-16.42454
 31
0.25
  0
LINE
  8
PLAN_1
 62
7
 10
2.140316
 20
-16.42454
 30
0.25
 11
2.140316
 21
-18.097498
 31
0.25
  0
LINE
  8
PLAN_1
 62
7
 10
2.140316
 20
-18.097498
 30
0.25
 11
2.140316
 21
-18.373457
 31
0.25
  0
LINE
  8
PLAN_1
 62
7
 10
2.140316
 20
-18.373457
 30
0.25
 11
-30.029516
 21
-18.373457
 31
0.25
  0
LINE
  8
PLAN_1
 62
7
 10
-30.029516
 20
-18.373457
 30
0.25
 11
-30.029516
 21
-5.342522
 31
0.25
  0
LINE
  8
PLAN_1
 62
7
 10
-30.029516
 20
-5.342522
 30
0.25
 11
-29.394516
 21
-5.342522
 31
0.25
  0
LINE
  8
PLAN_1
 62
7
 10
-29.394516
 20
-5.342522
 30
0.25
 11
-29.394516
 21
-3.222359
 31
0.25
  0
LINE
  8
PLAN_1
 62
7
 10
-29.394516
 20
-3.222359
 30
0.25
 11
-31.514679
 21
-3.222359
 31
0.25
  0
LINE
  8
PLAN_1
 62
7
 10
-31.514679
 20
-3.222359
 30
0.25
 11
-31.514679
 21
-5.342522
 31
0.25
  0
LINE
  8
PLAN_1
 62
7
 10
-31.514679
 20
-5.342522
 30
0.25
 11
-30.879679
 21
-5.342522
 31
0.25
  0
LINE
  8
PLAN_1
 62
7
 10
-30.879679
 20
-5.342522
 30
0.25
 11
-30.879679
 21
-18.798538
 31
0.25
  0
LINE
  8
PLAN_1
 62
7
 10
-30.879679
 20
-18.798538
 30
0.25
 11
-30.847322
 21
-18.96121
 31
0.25
  0
LINE
  8
PLAN_1
 62
7
 10
-30.847322
 20
-18.96121
 30
0.25
 11
-30.755177
 21
-19.099117
 31
0.25
  0
LINE
  8
PLAN_1
 62
7
 10
-30.755177
 20
-19.099117
 30
0.25
 11
-30.61727
 21
-19.191263
 31
0.25
  0
LINE
  8
PLAN_1
 62
7
 10
-30.61727
 20
-19.191263
 30
0.25
 11
-30.454597
 21
-19.223619
 31
0.25
  0
LINE
  8
PLAN_1
 62
7
 10
-30.454597
 20
-19.223619
 30
0.25
 11
2.358078
 21
-19.223619
 31
0.25
  0
LINE
  8
PLAN_1
 62
7
 10
2.358078
 20
-19.223619
 30
0.25
 11
5.734417
 21
-23.544851
 31
0.25
  0
LINE
  8
PLAN_1
 62
7
 10
5.734417
 20
-23.544851
 30
0.25
 11
5.734417
 21
-25.338137
 31
0.25
  0
LINE
  8
PLAN_1
 62
7
 10
5.734417
 20
-25.338137
 30
0.25
 11
5.099419
 21
-25.338137
 31
0.25
  0
LINE
  8
PLAN_1
 62
7
 10
5.099419
 20
-25.338137
 30
0.25
 11
5.099419
 21
-27.4583
 31
0.25
  0
LINE
  8
PLAN_1
 62
7
 10
5.099419
 20
-27.4583
 30
0.25
 11
7.219582
 21
-27.4583
 31
0.25
  0
LINE
  8
PLAN_1
 62
7
 10
7.219582
 20
-27.4583
 30
0.25
 11
7.219582
 21
-25.338137
 31
0.25
  0
LINE
  8
PLAN_1
 62
7
 10
7.219582
 20
-25.338137
 30
0.25
 11
6.584583
 21
-25.338137
 31
0.25
  0
LINE
  8
PLAN_1
 62
7
 10
6.584583
 20
-25.338137
 30
0.25
 11
6.584583
 21
-23.398478
 31
0.25
  0
LINE
  8
PLAN_1
 62
7
 10
6.584583
 20
-23.398478
 30
0.25
 11
6.552223
 21
-23.235806
 31
0.25
  0
LINE
  8
PLAN_1
 62
7
 10
6.552223
 20
-23.235806
 30
0.25
 11
6.494461
 21
-23.136761
 31
0.25
  0
LINE
  8
PLAN_1
 62
7
 10
6.494461
 20
-23.136761
 30
0.25
 11
2.990482
 21
-18.652164
 31
0.25
  0
LINE
  8
PLAN_1
 62
7
 10
2.990482
 20
-18.652164
 30
0.25
 11
2.990482
 21
-18.097498
 31
0.25
  0
LINE
  8
PLAN_1
 62
7
 10
2.990482
 20
-18.097498
 30
0.25
 11
2.990482
 21
-15.999458
 31
0.25
  0
LINE
  8
PLAN_1
 62
7
 10
2.990482
 20
-15.999458
 30
0.25
 11
2.990482
 21
-15.29842
 31
0.25
  0
LINE
  8
PLAN_1
 62
7
 10
2.990482
 20
-15.29842
 30
0.25
 11
2.990482
 21
-12.898119
 31
0.25
  0
LINE
  8
PLAN_1
 62
7
 10
2.990482
 20
-12.898119
 30
0.25
 11
2.990482
 21
-10.794998
 31
0.25
  0
LINE
  8
PLAN_1
 62
7
 10
2.990482
 20
-10.794998
 30
0.25
 11
2.990482
 21
-8.798561
 31
0.25
  0
LINE
  8
PLAN_1
 62
7
 10
2.990482
 20
-8.798561
 30
0.25
 11
2.990482
 21
-6.349998
 31
0.25
  0
LINE
  8
PLAN_1
 62
7
 10
2.990482
 20
-6.349998
 30
0.25
 11
2.990482
 21
-5.342522
 31
0.25
  0
LINE
  8
PLAN_1
 62
7
 10
2.990482
 20
-5.342522
 30
0.25
 11
3.625481
 21
-5.342522
 31
0.25
  0
LINE
  8
PLAN_1
 62
7
 10
3.625481
 20
-5.342522
 30
0.25
 11
3.625481
 21
-3.222359
 31
0.25
  0
LINE
  8
PLAN_1
 62
7
 10
3.625481
 20
-3.222359
 30
0.25
 11
1.505318
 21
-3.222359
 31
0.25
  0
LINE
  8
PLAN_1
 62
7
 10
1.505318
 20
-3.222359
 30
0.25
 11
1.505318
 21
-5.342522
 31
0.25
  0
LINE
  8
PLAN_1
 62
7
 10
1.505318
 20
-5.342522
 30
0.25
 11
2.140316
 21
-5.342522
 31
0.25
  0
LINE
  8
PLAN_1
 62
7
 10
2.140316
 20
-5.342522
 30
0.25
 11
2.140316
 21
-6.349998
 31
0.25
  0
LINE
  8
PLAN_1
 62
7
 10
2.140316
 20
-6.349998
 30
0.25
 11
2.140316
 21
-8.798561
 31
0.25
  0
LINE
  8
PLAN_1
 62
7
 10
2.140316
 20
-8.798561
 30
0.25
 11
2.140316
 21
-10.794998
 31
0.25
  0
LINE
  8
PLAN_1
 62
7
 10
2.140316
 20
-10.794998
 30
0.25
 11
2.140316
 21
-12.898119
 31
0.25
  0
LINE
  8
PLAN_1
 62
7
 10
2.140316
 20
-12.898119
 30
0.25
 11
2.140316
 21
-15.29842
 31
0.25
  0
LINE
  8
PLAN_1
 62
7
 10
2.140316
 20
-15.29842
 30
0.25
 11
2.140316
 21
-15.574377
 31
0.25
  0
LINE
  8
PLAN_1
 62
7
 10
2.140316
 20
-15.574377
 30
0.25
 11
0.811539
 21
-15.574377
 31
0.25
  0
LINE
  8
PLAN_1
 62
7
 10
0.811539
 20
-15.574377
 30
0.25
 11
0.723946
 21
-15.410509
 31
0.25
  0
LINE
  8
PLAN_1
 62
7
 10
0.723946
 20
-15.410509
 30
0.25
 11
0.592113
 21
-15.249866
 31
0.25
  0
LINE
  8
PLAN_1
 62
7
 10
0.592113
 20
-15.249866
 30
0.25
 11
0.431473
 21
-15.118032
 31
0.25
  0
LINE
  8
PLAN_1
 62
7
 10
0.431473
 20
-15.118032
 30
0.25
 11
0.248196
 21
-15.020071
 31
0.25
  0
LINE
  8
PLAN_1
 62
7
 10
0.248196
 20
-15.020071
 30
0.25
 11
0.049332
 21
-14.959745
 31
0.25
  0
LINE
  8
PLAN_1
 62
7
 10
0.049332
 20
-14.959745
 30
0.25
 11
-0.157478
 21
-14.939377
 31
0.25
  0
LINE
  8
PLAN_1
 62
7
 10
-0.157478
 20
-14.939377
 30
0.25
 11
-0.364288
 21
-14.959745
 31
0.25
  0
LINE
  8
PLAN_1
 62
7
 10
-0.364288
 20
-14.959745
 30
0.25
 11
-0.563152
 21
-15.020071
 31
0.25
  0
LINE
  8
PLAN_1
 62
7
 10
-0.563152
 20
-15.020071
 30
0.25
 11
-0.746429
 21
-15.118032
 31
0.25
  0
LINE
  8
PLAN_1
 62
7
 10
-0.746429
 20
-15.118032
 30
0.25
 11
-0.90707
 21
-15.249866
 31
0.25
  0
LINE
  8
PLAN_1
 62
7
 10
-0.90707
 20
-15.249866
 30
0.25
 11
-1.038902
 21
-15.410509
 31
0.25
  0
LINE
  8
PLAN_1
 62
7
 10
-1.038902
 20
-15.410509
 30
0.25
 11
-1.136868
 21
-15.593782
 31
0.25
  0
LINE
  8
PLAN_1
 62
7
 10
-1.136868
 20
-15.593782
 30
0.25
 11
-1.197189
 21
-15.792646
 31
0.25
  0
LINE
  8
PLAN_1
 62
7
 10
-1.197189
 20
-15.792646
 30
0.25
 11
-1.21756
 21
-15.999458
 31
0.25
  0
LINE
  8
PLAN_1
 62
7
 10
-1.21756
 20
-15.999458
 30
0.25
 11
-1.197189
 21
-16.20627
 31
0.25
  0
LINE
  8
PLAN_1
 62
7
 10
-1.197189
 20
-16.20627
 30
0.25
 11
-1.136868
 21
-16.405134
 31
0.25
  0
LINE
  8
PLAN_1
 62
7
 10
-1.136868
 20
-16.405134
 30
0.25
 11
-1.038902
 21
-16.588408
 31
0.25
  0
LINE
  8
PLAN_1
 62
7
 10
-1.038902
 20
-16.588408
 30
0.25
 11
-0.90707
 21
-16.749048
 31
0.25
  0
LINE
  8
PLAN_1
 62
7
 10
-0.90707
 20
-16.749048
 30
0.25
 11
-0.746429
 21
-16.880884
 31
0.25
  0
LINE
  8
PLAN_1
 62
7
 10
-15.617558
 20
-25.338137
 30
0.25
 11
-17.73772
 21
-25.338137
 31
0.25
  0
LINE
  8
PLAN_1
 62
7
 10
-17.73772
 20
-25.338137
 30
0.25
 11
-17.73772
 21
-27.4583
 31
0.25
  0
LINE
  8
PLAN_1
 62
7
 10
-17.73772
 20
-27.4583
 30
0.25
 11
-15.617558
 21
-27.4583
 31
0.25
  0
LINE
  8
PLAN_1
 62
7
 10
-15.617558
 20
-27.4583
 30
0.25
 11
-15.617558
 21
-25.338137
 31
0.25
  0
LINE
  8
PLAN_1
 62
7
 10
-4.605995
 20
-15.062311
 30
0.25
 11
-4.573635
 21
-14.899639
 31
0.25
  0
LINE
  8
PLAN_1
 62
7
 10
6.552223
 20
-23.235806
 30
0.25
 11
6.460079
 21
-23.097898
 31
0.25
  0
LINE
  8
PLAN_1
 62
7
 10
4.605995
 20
-17.86647
 30
0.25
 11
4.698139
 21
-18.004377
 31
0.25
  0
LINE
  8
PLAN_1
 62
7
 10
-18.157558
 20
-25.338137
 30
0.25
 11
-20.277721
 21
-25.338137
 31
0.25
  0
LINE
  8
PLAN_1
 62
7
 10
-20.277721
 20
-25.338137
 30
0.25
 11
-20.277721
 21
-27.4583
 31
0.25
  0
LINE
  8
PLAN_1
 62
7
 10
-20.277721
 20
-27.4583
 30
0.25
 11
-18.157558
 21
-27.4583
 31
0.25
  0
LINE
  8
PLAN_1
 62
7
 10
-18.157558
 20
-27.4583
 30
0.25
 11
-18.157558
 21
-25.338137
 31
0.25
  0
LINE
  8
PLAN_1
 62
7
 10
7.639416
 20
-25.338137
 30
0.25
 11
7.639416
 21
-27.4583
 31
0.25
  0
LINE
  8
PLAN_1
 62
7
 10
7.639416
 20
-27.4583
 30
0.25
 11
9.759579
 21
-27.4583
 31
0.25
  0
LINE
  8
PLAN_1
 62
7
 10
9.759579
 20
-27.4583
 30
0.25
 11
9.759579
 21
-25.338137
 31
0.25
  0
LINE
  8
PLAN_1
 62
7
 10
9.759579
 20
-25.338137
 30
0.25
 11
7.639416
 21
-25.338137
 31
0.25
  0
LINE
  8
PLAN_1
 62
7
 10
10.179417
 20
-25.338137
 30
0.25
 11
10.179417
 21
-27.4583
 31
0.25
  0
LINE
  8
PLAN_1
 62
7
 10
10.179417
 20
-27.4583
 30
0.25
 11
12.29958
 21
-27.4583
 31
0.25
  0
LINE
  8
PLAN_1
 62
7
 10
12.29958
 20
-27.4583
 30
0.25
 11
12.29958
 21
-25.338137
 31
0.25
  0
LINE
  8
PLAN_1
 62
7
 10
12.29958
 20
-25.338137
 30
0.25
 11
10.179417
 21
-25.338137
 31
0.25
  0
LINE
  8
PLAN_1
 62
7
 10
-6.534519
 20
-5.342522
 30
0.25
 11
-6.534519
 21
-3.222359
 31
0.25
  0
LINE
  8
PLAN_1
 62
7
 10
-6.534519
 20
-3.222359
 30
0.25
 11
-7.042519
 21
-3.222359
 31
0.25
  0
LINE
  8
PLAN_1
 62
7
 10
-7.042519
 20
-3.222359
 30
0.25
 11
-7.042519
 21
0.390568
 31
0.25
  0
LINE
  8
PLAN_1
 62
7
 10
-7.042519
 20
0.390568
 30
0.25
 11
-7.042358
 21
0.403057
 31
0.25
  0
LINE
  8
PLAN_1
 62
7
 10
-7.042358
 20
0.403057
 30
0.25
 11
-7.024921
 21
1.083126
 31
0.25
  0
LINE
  8
PLAN_1
 62
7
 10
-7.024921
 20
1.083126
 30
0.25
 11
-6.94931
 21
7.610416
 31
0.25
  0
LINE
  8
PLAN_1
 62
7
 10
-6.94931
 20
7.610416
 30
0.25
 11
9.730854
 21
19.342651
 31
0.25
  0
LINE
  8
PLAN_1
 62
7
 10
9.730854
 20
19.342651
 30
0.25
 11
9.803619
 21
19.403839
 31
0.25
  0
LINE
  8
PLAN_1
 62
7
 10
9.803619
 20
19.403839
 30
0.25
 11
9.923294
 21
19.582947
 31
0.25
  0
LINE
  8
PLAN_1
 62
7
 10
9.923294
 20
19.582947
 30
0.25
 11
9.937836
 21
19.6222
 31
0.25
  0
LINE
  8
PLAN_1
 62
7
 10
9.937836
 20
19.6222
 30
0.25
 11
10.362911
 21
20.918533
 31
0.25
  0
LINE
  8
PLAN_1
 62
7
 10
10.362911
 20
20.918533
 30
0.25
 11
11.189602
 21
20.918533
 31
0.25
  0
LINE
  8
PLAN_1
 62
7
 10
11.189602
 20
20.918533
 30
0.25
 11
11.189602
 21
23.038696
 31
0.25
  0
LINE
  8
PLAN_1
 62
7
 10
11.189602
 20
23.038696
 30
0.25
 11
9.069439
 21
23.038696
 31
0.25
  0
LINE
  8
PLAN_1
 62
7
 10
9.069439
 20
23.038696
 30
0.25
 11
9.069439
 21
20.918533
 31
0.25
  0
LINE
  8
PLAN_1
 62
7
 10
9.069439
 20
20.918533
 30
0.25
 11
9.200905
 21
20.918533
 31
0.25
  0
LINE
  8
PLAN_1
 62
7
 10
9.200905
 20
20.918533
 30
0.25
 11
8.94574
 21
20.140366
 31
0.25
  0
LINE
  8
PLAN_1
 62
7
 10
8.94574
 20
20.140366
 30
0.25
 11
-7.815697
 21
8.350967
 31
0.25
  0
LINE
  8
PLAN_1
 62
7
 10
-7.815697
 20
8.350967
 30
0.25
 11
-7.888462
 21
8.28978
 31
0.25
  0
LINE
  8
PLAN_1
 62
7
 10
-7.888462
 20
8.28978
 30
0.25
 11
-8.008137
 21
8.110672
 31
0.25
  0
LINE
  8
PLAN_1
 62
7
 10
-8.008137
 20
8.110672
 30
0.25
 11
-8.050163
 21
7.899399
 31
0.25
  0
LINE
  8
PLAN_1
 62
7
 10
-8.050163
 20
7.899399
 30
0.25
 11
-8.128777
 21
1.111164
 31
0.25
  0
LINE
  8
PLAN_1
 62
7
 10
-8.128777
 20
1.111164
 30
0.25
 11
-8.1465
 21
0.418011
 31
0.25
  0
LINE
  8
PLAN_1
 62
7
 10
-8.1465
 20
0.418011
 30
0.25
 11
-8.146683
 21
0.403858
 31
0.25
  0
LINE
  8
PLAN_1
 62
7
 10
-8.146683
 20
0.403858
 30
0.25
 11
-8.146683
 21
-3.222359
 31
0.25
  0
LINE
  8
PLAN_1
 62
7
 10
-8.146683
 20
-3.222359
 30
0.25
 11
-8.654682
 21
-3.222359
 31
0.25
  0
LINE
  8
PLAN_1
 62
7
 10
-8.654682
 20
-3.222359
 30
0.25
 11
-8.654682
 21
-5.342522
 31
0.25
  0
LINE
  8
PLAN_1
 62
7
 10
-8.654682
 20
-5.342522
 30
0.25
 11
-6.534519
 21
-5.342522
 31
0.25
  0
LINE
  8
PLAN_1
 62
7
 10
-3.57468
 20
-5.342522
 30
0.25
 11
-1.454517
 21
-5.342522
 31
0.25
  0
LINE
  8
PLAN_1
 62
7
 10
-1.454517
 20
-5.342522
 30
0.25
 11
-1.454517
 21
-3.222359
 31
0.25
  0
LINE
  8
PLAN_1
 62
7
 10
-1.454517
 20
-3.222359
 30
0.25
 11
-1.962517
 21
-3.222359
 31
0.25
  0
LINE
  8
PLAN_1
 62
7
 10
-1.962517
 20
-3.222359
 30
0.25
 11
-1.962517
 21
0.976219
 31
0.25
  0
LINE
  8
PLAN_1
 62
7
 10
-1.962517
 20
0.976219
 30
0.25
 11
-1.897404
 21
6.128334
 31
0.25
  0
LINE
  8
PLAN_1
 62
7
 10
-1.897404
 20
6.128334
 30
0.25
 11
14.83099
 21
18.759266
 31
0.25
  0
LINE
  8
PLAN_1
 62
7
 10
14.83099
 20
18.759266
 30
0.25
 11
14.888699
 21
18.809479
 31
0.25
  0
LINE
  8
PLAN_1
 62
7
 10
14.888699
 20
18.809479
 30
0.25
 11
15.008373
 21
18.988586
 31
0.25
  0
LINE
  8
PLAN_1
 62
7
 10
15.008373
 20
18.988586
 30
0.25
 11
15.033161
 21
19.062973
 31
0.25
  0
LINE
  8
PLAN_1
 62
7
 10
15.033161
 20
19.062973
 30
0.25
 11
15.508076
 21
20.918533
 31
0.25
  0
LINE
  8
PLAN_1
 62
7
 10
15.508076
 20
20.918533
 30
0.25
 11
16.269596
 21
20.918533
 31
0.25
  0
LINE
  8
PLAN_1
 62
7
 10
16.269596
 20
20.918533
 30
0.25
 11
16.269596
 21
23.038696
 31
0.25
  0
LINE
  8
PLAN_1
 62
7
 10
16.269596
 20
23.038696
 30
0.25
 11
14.149433
 21
23.038696
 31
0.25
  0
LINE
  8
PLAN_1
 62
7
 10
14.149433
 20
23.038696
 30
0.25
 11
14.149433
 21
20.918533
 31
0.25
  0
LINE
  8
PLAN_1
 62
7
 10
14.149433
 20
20.918533
 30
0.25
 11
14.36832
 21
20.918533
 31
0.25
  0
LINE
  8
PLAN_1
 62
7
 10
14.36832
 20
20.918533
 30
0.25
 11
14.011395
 21
19.523979
 31
0.25
  0
LINE
  8
PLAN_1
 62
7
 10
14.011395
 20
19.523979
 30
0.25
 11
-2.77869
 21
6.846474
 31
0.25
  0
LINE
  8
PLAN_1
 62
7
 10
-2.77869
 20
6.846474
 30
0.25
 11
-2.836399
 21
6.796261
 31
0.25
  0
LINE
  8
PLAN_1
 62
7
 10
-2.836399
 20
6.796261
 30
0.25
 11
-2.956074
 21
6.617153
 31
0.25
  0
LINE
  8
PLAN_1
 62
7
 10
-2.956074
 20
6.617153
 30
0.25
 11
-2.9981
 21
6.40588
 31
0.25
  0
LINE
  8
PLAN_1
 62
7
 10
-2.9981
 20
6.40588
 30
0.25
 11
-3.066635
 21
0.98996
 31
0.25
  0
LINE
  8
PLAN_1
 62
7
 10
-3.066635
 20
0.98996
 30
0.25
 11
-3.066681
 21
-3.222359
 31
0.25
  0
LINE
  8
PLAN_1
 62
7
 10
-3.066681
 20
-3.222359
 30
0.25
 11
-3.57468
 21
-3.222359
 31
0.25
  0
LINE
  8
PLAN_1
 62
7
 10
-3.57468
 20
-3.222359
 30
0.25
 11
-3.57468
 21
-5.342522
 31
0.25
  0
LINE
  8
PLAN_1
 62
7
 10
-9.074516
 20
-5.342522
 30
0.25
 11
-9.074516
 21
-3.222359
 31
0.25
  0
LINE
  8
PLAN_1
 62
7
 10
-9.074516
 20
-3.222359
 30
0.25
 11
-11.194679
 21
-3.222359
 31
0.25
  0
LINE
  8
PLAN_1
 62
7
 10
-11.194679
 20
-3.222359
 30
0.25
 11
-11.194679
 21
-5.342522
 31
0.25
  0
LINE
  8
PLAN_1
 62
7
 10
-11.194679
 20
-5.342522
 30
0.25
 11
-9.074516
 21
-5.342522
 31
0.25
  0
LINE
  8
PLAN_1
 62
7
 10
-11.614517
 20
-5.342522
 30
0.25
 11
-11.614517
 21
-3.222359
 31
0.25
  0
LINE
  8
PLAN_1
 62
7
 10
-11.614517
 20
-3.222359
 30
0.25
 11
-13.73468
 21
-3.222359
 31
0.25
  0
LINE
  8
PLAN_1
 62
7
 10
-13.73468
 20
-3.222359
 30
0.25
 11
-13.73468
 21
-5.342522
 31
0.25
  0
LINE
  8
PLAN_1
 62
7
 10
-13.73468
 20
-5.342522
 30
0.25
 11
-11.614517
 21
-5.342522
 31
0.25
  0
LINE
  8
PLAN_1
 62
7
 10
-14.154518
 20
-5.342522
 30
0.25
 11
-14.154518
 21
-3.222359
 31
0.25
  0
LINE
  8
PLAN_1
 62
7
 10
-14.154518
 20
-3.222359
 30
0.25
 11
-16.274681
 21
-3.222359
 31
0.25
  0
LINE
  8
PLAN_1
 62
7
 10
-16.274681
 20
-3.222359
 30
0.25
 11
-16.274681
 21
-5.342522
 31
0.25
  0
LINE
  8
PLAN_1
 62
7
 10
-16.274681
 20
-5.342522
 30
0.25
 11
-14.154518
 21
-5.342522
 31
0.25
  0
LINE
  8
PLAN_1
 62
7
 10
-16.694519
 20
-5.342522
 30
0.25
 11
-16.694519
 21
-3.222359
 31
0.25
  0
LINE
  8
PLAN_1
 62
7
 10
-16.694519
 20
-3.222359
 30
0.25
 11
-18.814682
 21
-3.222359
 31
0.25
  0
LINE
  8
PLAN_1
 62
7
 10
-18.814682
 20
-3.222359
 30
0.25
 11
-18.814682
 21
-5.342522
 31
0.25
  0
LINE
  8
PLAN_1
 62
7
 10
-18.814682
 20
-5.342522
 30
0.25
 11
-16.694519
 21
-5.342522
 31
0.25
  0
LINE
  8
PLAN_1
 62
7
 10
-10.283249
 20
13.347237
 30
0.25
 11
-1.982529
 21
19.146057
 31
0.25
  0
LINE
  8
PLAN_1
 62
7
 10
-1.982529
 20
19.146057
 30
0.25
 11
-1.908318
 21
19.20826
 31
0.25
  0
LINE
  8
PLAN_1
 62
7
 10
-1.908318
 20
19.20826
 30
0.25
 11
-1.788643
 21
19.387367
 31
0.25
  0
LINE
  8
PLAN_1
 62
7
 10
-1.788643
 20
19.387367
 30
0.25
 11
-1.771065
 21
19.436165
 31
0.25
  0
LINE
  8
PLAN_1
 62
7
 10
-1.771065
 20
19.436165
 30
0.25
 11
-1.308331
 21
20.938858
 31
0.25
  0
LINE
  8
PLAN_1
 62
7
 10
-1.308331
 20
20.938858
 30
0.25
 11
-0.499477
 21
20.938858
 31
0.25
  0
LINE
  8
PLAN_1
 62
7
 10
-0.499477
 20
20.938858
 30
0.25
 11
-0.499477
 21
23.059021
 31
0.25
  0
LINE
  8
PLAN_1
 62
7
 10
-0.499477
 20
23.059021
 30
0.25
 11
-2.61964
 21
23.059021
 31
0.25
  0
LINE
  8
PLAN_1
 62
7
 10
-2.61964
 20
23.059021
 30
0.25
 11
-2.61964
 21
20.938858
 31
0.25
  0
LINE
  8
PLAN_1
 62
7
 10
-2.61964
 20
20.938858
 30
0.25
 11
-2.463661
 21
20.938858
 31
0.25
  0
LINE
  8
PLAN_1
 62
7
 10
-2.463661
 20
20.938858
 30
0.25
 11
-2.77047
 21
19.94252
 31
0.25
  0
LINE
  8
PLAN_1
 62
7
 10
-2.77047
 20
19.94252
 30
0.25
 11
-10.915588
 21
14.252403
 31
0.25
  0
LINE
  8
PLAN_1
 62
7
 10
-10.915588
 20
14.252403
 30
0.25
 11
-20.658566
 21
7.460762
 31
0.25
  0
LINE
  8
PLAN_1
 62
7
 10
-20.658566
 20
7.460762
 30
0.25
 11
-20.733238
 21
7.398239
 31
0.25
  0
LINE
  8
PLAN_1
 62
7
 10
-20.733238
 20
7.398239
 30
0.25
 11
-20.79377
 21
7.307644
 31
0.25
  0
LINE
  8
PLAN_1
 62
7
 10
-20.79377
 20
7.307644
 30
0.25
 11
-20.853146
 21
7.217957
 31
0.25
  0
LINE
  8
PLAN_1
 62
7
 10
-20.853146
 20
7.217957
 30
0.25
 11
-20.874237
 21
7.111931
 31
0.25
  0
LINE
  8
PLAN_1
 62
7
 10
-20.874237
 20
7.111931
 30
0.25
 11
-20.894707
 21
7.00668
 31
0.25
  0
LINE
  8
PLAN_1
 62
7
 10
-20.894707
 20
7.00668
 30
0.25
 11
-20.851215
 21
-3.222359
 31
0.25
  0
LINE
  8
PLAN_1
 62
7
 10
-20.851215
 20
-3.222359
 30
0.25
 11
-21.354679
 21
-3.222359
 31
0.25
  0
LINE
  8
PLAN_1
 62
7
 10
-21.354679
 20
-3.222359
 30
0.25
 11
-21.354679
 21
-5.342522
 31
0.25
  0
LINE
  8
PLAN_1
 62
7
 10
-21.354679
 20
-5.342522
 30
0.25
 11
-19.234516
 21
-5.342522
 31
0.25
  0
LINE
  8
PLAN_1
 62
7
 10
-19.234516
 20
-5.342522
 30
0.25
 11
-19.234516
 21
-3.222359
 31
0.25
  0
LINE
  8
PLAN_1
 62
7
 10
-19.234516
 20
-3.222359
 30
0.25
 11
-19.74704
 21
-3.222359
 31
0.25
  0
LINE
  8
PLAN_1
 62
7
 10
-19.74704
 20
-3.222359
 30
0.25
 11
-19.789539
 21
6.720589
 31
0.25
  0
LINE
  8
PLAN_1
 62
7
 10
-19.789539
 20
6.720589
 30
0.25
 11
-10.28371
 21
13.346916
 31
0.25
  0
LINE
  8
PLAN_1
 62
7
 10
-10.28371
 20
13.346916
 30
0.25
 11
-10.209038
 21
13.409439
 31
0.25
  0
LINE
  8
PLAN_1
 62
7
 10
-21.774517
 20
-5.342522
 30
0.25
 11
-21.774517
 21
-3.222359
 31
0.25
  0
LINE
  8
PLAN_1
 62
7
 10
-21.774517
 20
-3.222359
 30
0.25
 11
-22.409517
 21
-3.222359
 31
0.25
  0
LINE
  8
PLAN_1
 62
7
 10
-22.409517
 20
-3.222359
 30
0.25
 11
-22.409517
 21
22.683769
 31
0.25
  0
LINE
  8
PLAN_1
 62
7
 10
-22.409517
 20
22.683769
 30
0.25
 11
-20.616516
 21
24.474541
 31
0.25
  0
LINE
  8
PLAN_1
 62
7
 10
-20.616516
 20
24.474541
 30
0.25
 11
-0.585125
 21
24.474541
 31
0.25
  0
LINE
  8
PLAN_1
 62
7
 10
-0.585125
 20
24.474541
 30
0.25
 11
1.44944
 21
22.438202
 31
0.25
  0
LINE
  8
PLAN_1
 62
7
 10
1.44944
 20
22.438202
 30
0.25
 11
1.44944
 21
20.918533
 31
0.25
  0
LINE
  8
PLAN_1
 62
7
 10
1.44944
 20
20.918533
 30
0.25
 11
3.569603
 21
20.918533
 31
0.25
  0
LINE
  8
PLAN_1
 62
7
 10
3.569603
 20
20.918533
 30
0.25
 11
3.569603
 21
23.038696
 31
0.25
  0
LINE
  8
PLAN_1
 62
7
 10
3.569603
 20
23.038696
 30
0.25
 11
2.051254
 21
23.038696
 31
0.25
  0
LINE
  8
PLAN_1
 62
7
 10
2.051254
 20
23.038696
 30
0.25
 11
-0.108231
 21
25.200066
 31
0.25
  0
LINE
  8
PLAN_1
 62
7
 10
-0.108231
 20
25.200066
 30
0.25
 11
-0.246269
 21
25.292343
 31
0.25
  0
LINE
  8
PLAN_1
 62
7
 10
-0.246269
 20
25.292343
 30
0.25
 11
-0.408939
 21
25.324699
 31
0.25
  0
LINE
  8
PLAN_1
 62
7
 10
-0.408939
 20
25.324699
 30
0.25
 11
-20.792439
 21
25.324699
 31
0.25
  0
LINE
  8
PLAN_1
 62
7
 10
-20.792439
 20
25.324699
 30
0.25
 11
-20.955109
 21
25.292343
 31
0.25
  0
LINE
  8
PLAN_1
 62
7
 10
-20.955109
 20
25.292343
 30
0.25
 11
-21.092831
 21
25.200386
 31
0.25
  0
LINE
  8
PLAN_1
 62
7
 10
-21.092831
 20
25.200386
 30
0.25
 11
-23.135178
 21
23.160576
 31
0.25
  0
LINE
  8
PLAN_1
 62
7
 10
-23.135178
 20
23.160576
 30
0.25
 11
-23.227324
 21
23.022675
 31
0.25
  0
LINE
  8
PLAN_1
 62
7
 10
-23.227324
 20
23.022675
 30
0.25
 11
-23.25968
 21
22.860001
 31
0.25
  0
LINE
  8
PLAN_1
 62
7
 10
-23.25968
 20
22.860001
 30
0.25
 11
-23.25968
 21
-3.222359
 31
0.25
  0
LINE
  8
PLAN_1
 62
7
 10
-23.25968
 20
-3.222359
 30
0.25
 11
-23.89468
 21
-3.222359
 31
0.25
  0
LINE
  8
PLAN_1
 62
7
 10
-23.89468
 20
-3.222359
 30
0.25
 11
-23.89468
 21
-5.342522
 31
0.25
  0
LINE
  8
PLAN_1
 62
7
 10
-23.89468
 20
-5.342522
 30
0.25
 11
-21.774517
 21
-5.342522
 31
0.25
  0
LINE
  8
PLAN_1
 62
7
 10
-24.314518
 20
-5.342522
 30
0.25
 11
-24.314518
 21
-3.222359
 31
0.25
  0
LINE
  8
PLAN_1
 62
7
 10
-24.314518
 20
-3.222359
 30
0.25
 11
-25.373697
 21
-3.222359
 31
0.25
  0
LINE
  8
PLAN_1
 62
7
 10
-25.373697
 20
-3.222359
 30
0.25
 11
-25.373697
 21
23.527206
 31
0.25
  0
LINE
  8
PLAN_1
 62
7
 10
-25.373697
 20
23.527206
 30
0.25
 11
-22.826164
 21
26.074738
 31
0.25
  0
LINE
  8
PLAN_1
 62
7
 10
-22.826164
 20
26.074738
 30
0.25
 11
1.896564
 21
26.074738
 31
0.25
  0
LINE
  8
PLAN_1
 62
7
 10
1.896564
 20
26.074738
 30
0.25
 11
4.624435
 21
23.34687
 31
0.25
  0
LINE
  8
PLAN_1
 62
7
 10
4.624435
 20
23.34687
 30
0.25
 11
4.624435
 21
23.038696
 31
0.25
  0
LINE
  8
PLAN_1
 62
7
 10
4.624435
 20
23.038696
 30
0.25
 11
3.989437
 21
23.038696
 31
0.25
  0
LINE
  8
PLAN_1
 62
7
 10
3.989437
 20
23.038696
 30
0.25
 11
3.989437
 21
20.918533
 31
0.25
  0
LINE
  8
PLAN_1
 62
7
 10
3.989437
 20
20.918533
 30
0.25
 11
6.1096
 21
20.918533
 31
0.25
  0
LINE
  8
PLAN_1
 62
7
 10
6.1096
 20
20.918533
 30
0.25
 11
6.1096
 21
23.038696
 31
0.25
  0
LINE
  8
PLAN_1
 62
7
 10
6.1096
 20
23.038696
 30
0.25
 11
5.474602
 21
23.038696
 31
0.25
  0
LINE
  8
PLAN_1
 62
7
 10
5.474602
 20
23.038696
 30
0.25
 11
5.474602
 21
23.522942
 31
0.25
  0
LINE
  8
PLAN_1
 62
7
 10
5.474602
 20
23.522942
 30
0.25
 11
5.442242
 21
23.685616
 31
0.25
  0
LINE
  8
PLAN_1
 62
7
 10
5.442242
 20
23.685616
 30
0.25
 11
5.350098
 21
23.823517
 31
0.25
  0
LINE
  8
PLAN_1
 62
7
 10
5.350098
 20
23.823517
 30
0.25
 11
2.373219
 21
26.800392
 31
0.25
  0
LINE
  8
PLAN_1
 62
7
 10
2.373219
 20
26.800392
 30
0.25
 11
2.23531
 21
26.89254
 31
0.25
  0
LINE
  8
PLAN_1
 62
7
 10
2.23531
 20
26.89254
 30
0.25
 11
2.072639
 21
26.924896
 31
0.25
  0
LINE
  8
PLAN_1
 62
7
 10
2.072639
 20
26.924896
 30
0.25
 11
-23.002239
 21
26.924896
 31
0.25
  0
LINE
  8
PLAN_1
 62
7
 10
-23.002239
 20
26.924896
 30
0.25
 11
-23.164911
 21
26.89254
 31
0.25
  0
LINE
  8
PLAN_1
 62
7
 10
-23.164911
 20
26.89254
 30
0.25
 11
-23.302818
 21
26.800392
 31
0.25
  0
LINE
  8
PLAN_1
 62
7
 10
-23.302818
 20
26.800392
 30
0.25
 11
-26.099358
 21
24.003853
 31
0.25
  0
LINE
  8
PLAN_1
 62
7
 10
-26.099358
 20
24.003853
 30
0.25
 11
-26.191504
 21
23.865952
 31
0.25
  0
LINE
  8
PLAN_1
 62
7
 10
-26.191504
 20
23.865952
 30
0.25
 11
-26.22386
 21
23.703278
 31
0.25
  0
LINE
  8
PLAN_1
 62
7
 10
-26.22386
 20
23.703278
 30
0.25
 11
-26.22386
 21
-3.222359
 31
0.25
  0
LINE
  8
PLAN_1
 62
7
 10
-26.22386
 20
-3.222359
 30
0.25
 11
-26.434681
 21
-3.222359
 31
0.25
  0
LINE
  8
PLAN_1
 62
7
 10
-26.434681
 20
-3.222359
 30
0.25
 11
-26.434681
 21
-5.342522
 31
0.25
  0
LINE
  8
PLAN_1
 62
7
 10
-26.434681
 20
-5.342522
 30
0.25
 11
-24.314518
 21
-5.342522
 31
0.25
  0
LINE
  8
PLAN_1
 62
7
 10
-26.854519
 20
-5.342522
 30
0.25
 11
-26.854519
 21
-3.222359
 31
0.25
  0
LINE
  8
PLAN_1
 62
7
 10
-26.854519
 20
-3.222359
 30
0.25
 11
-27.489519
 21
-3.222359
 31
0.25
  0
LINE
  8
PLAN_1
 62
7
 10
-27.489519
 20
-3.222359
 30
0.25
 11
-27.489519
 21
25.381409
 31
0.25
  0
LINE
  8
PLAN_1
 62
7
 10
-27.489519
 20
25.381409
 30
0.25
 11
-25.198524
 21
27.672401
 31
0.25
  0
LINE
  8
PLAN_1
 62
7
 10
-25.198524
 20
27.672401
 30
0.25
 11
3.321583
 21
27.672401
 31
0.25
  0
LINE
  8
PLAN_1
 62
7
 10
3.321583
 20
27.672401
 30
0.25
 11
7.164436
 21
23.831924
 31
0.25
  0
LINE
  8
PLAN_1
 62
7
 10
7.164436
 20
23.831924
 30
0.25
 11
7.164436
 21
23.038696
 31
0.25
  0
LINE
  8
PLAN_1
 62
7
 10
7.164436
 20
23.038696
 30
0.25
 11
6.529438
 21
23.038696
 31
0.25
  0
LINE
  8
PLAN_1
 62
7
 10
6.529438
 20
23.038696
 30
0.25
 11
6.529438
 21
20.918533
 31
0.25
  0
LINE
  8
PLAN_1
 62
7
 10
6.529438
 20
20.918533
 30
0.25
 11
8.649601
 21
20.918533
 31
0.25
  0
LINE
  8
PLAN_1
 62
7
 10
8.649601
 20
20.918533
 30
0.25
 11
8.649601
 21
23.038696
 31
0.25
  0
LINE
  8
PLAN_1
 62
7
 10
8.649601
 20
23.038696
 30
0.25
 11
8.014603
 21
23.038696
 31
0.25
  0
LINE
  8
PLAN_1
 62
7
 10
8.014603
 20
23.038696
 30
0.25
 11
8.014603
 21
24.00808
 31
0.25
  0
LINE
  8
PLAN_1
 62
7
 10
8.014603
 20
24.00808
 30
0.25
 11
7.998241
 21
24.090324
 31
0.25
  0
LINE
  8
PLAN_1
 62
7
 10
7.998241
 20
24.090324
 30
0.25
 11
7.982193
 21
24.170876
 31
0.25
  0
LINE
  8
PLAN_1
 62
7
 10
7.982193
 20
24.170876
 30
0.25
 11
7.933922
 21
24.243073
 31
0.25
  0
LINE
  8
PLAN_1
 62
7
 10
7.933922
 20
24.243073
 30
0.25
 11
7.890003
 21
24.308754
 31
0.25
  0
LINE
  8
PLAN_1
 62
7
 10
7.890003
 20
24.308754
 30
0.25
 11
3.798161
 21
28.398056
 31
0.25
  0
LINE
  8
PLAN_1
 62
7
 10
3.798161
 20
28.398056
 30
0.25
 11
3.721184
 21
28.449493
 31
0.25
  0
LINE
  8
PLAN_1
 62
7
 10
3.721184
 20
28.449493
 30
0.25
 11
3.660252
 21
28.490204
 31
0.25
  0
LINE
  8
PLAN_1
 62
7
 10
3.660252
 20
28.490204
 30
0.25
 11
3.575039
 21
28.507156
 31
0.25
  0
LINE
  8
PLAN_1
 62
7
 10
3.575039
 20
28.507156
 30
0.25
 11
3.497581
 21
28.52256
 31
0.25
  0
LINE
  8
PLAN_1
 62
7
 10
3.497581
 20
28.52256
 30
0.25
 11
-25.374599
 21
28.52256
 31
0.25
  0
LINE
  8
PLAN_1
 62
7
 10
-25.374599
 20
28.52256
 30
0.25
 11
-25.537271
 21
28.490204
 31
0.25
  0
LINE
  8
PLAN_1
 62
7
 10
-25.537271
 20
28.490204
 30
0.25
 11
-25.675179
 21
28.398056
 31
0.25
  0
LINE
  8
PLAN_1
 62
7
 10
-25.675179
 20
28.398056
 30
0.25
 11
-28.215179
 21
25.858055
 31
0.25
  0
LINE
  8
PLAN_1
 62
7
 10
-28.215179
 20
25.858055
 30
0.25
 11
-28.307325
 21
25.720154
 31
0.25
  0
LINE
  8
PLAN_1
 62
7
 10
-28.307325
 20
25.720154
 30
0.25
 11
-28.339682
 21
25.55748
 31
0.25
  0
LINE
  8
PLAN_1
 62
7
 10
-28.339682
 20
25.55748
 30
0.25
 11
-28.339682
 21
-3.222359
 31
0.25
  0
LINE
  8
PLAN_1
 62
7
 10
-28.339682
 20
-3.222359
 30
0.25
 11
-28.974682
 21
-3.222359
 31
0.25
  0
LINE
  8
PLAN_1
 62
7
 10
-28.974682
 20
-3.222359
 30
0.25
 11
-28.974682
 21
-5.342522
 31
0.25
  0
LINE
  8
PLAN_1
 62
7
 10
-28.974682
 20
-5.342522
 30
0.25
 11
-26.854519
 21
-5.342522
 31
0.25
  0
LINE
  8
PLAN_1
 62
7
 10
-34.474514
 20
-5.342522
 30
0.25
 11
-34.474514
 21
-3.222359
 31
0.25
  0
LINE
  8
PLAN_1
 62
7
 10
-34.474514
 20
-3.222359
 30
0.25
 11
-36.594677
 21
-3.222359
 31
0.25
  0
LINE
  8
PLAN_1
 62
7
 10
-36.594677
 20
-3.222359
 30
0.25
 11
-36.594677
 21
-5.342522
 31
0.25
  0
LINE
  8
PLAN_1
 62
7
 10
-36.594677
 20
-5.342522
 30
0.25
 11
-34.474514
 21
-5.342522
 31
0.25
  0
LINE
  8
PLAN_1
 62
7
 10
-37.014515
 20
-5.342522
 30
0.25
 11
-37.014515
 21
-3.222359
 31
0.25
  0
LINE
  8
PLAN_1
 62
7
 10
-37.014515
 20
-3.222359
 30
0.25
 11
-39.134678
 21
-3.222359
 31
0.25
  0
LINE
  8
PLAN_1
 62
7
 10
-39.134678
 20
-3.222359
 30
0.25
 11
-39.134678
 21
-5.342522
 31
0.25
  0
LINE
  8
PLAN_1
 62
7
 10
-39.134678
 20
-5.342522
 30
0.25
 11
-37.014515
 21
-5.342522
 31
0.25
  0
LINE
  8
PLAN_1
 62
7
 10
-10.915588
 20
14.252403
 30
0.25
 11
-10.989799
 21
14.190201
 31
0.25
  0
LINE
  8
PLAN_1
 62
7
 10
-5.579479
 20
20.938858
 30
0.25
 11
-5.579479
 21
23.059021
 31
0.25
  0
LINE
  8
PLAN_1
 62
7
 10
-5.579479
 20
23.059021
 30
0.25
 11
-7.699642
 21
23.059021
 31
0.25
  0
LINE
  8
PLAN_1
 62
7
 10
-7.699642
 20
23.059021
 30
0.25
 11
-7.699642
 21
20.938858
 31
0.25
  0
LINE
  8
PLAN_1
 62
7
 10
-7.699642
 20
20.938858
 30
0.25
 11
-5.579479
 21
20.938858
 31
0.25
  0
LINE
  8
PLAN_1
 62
7
 10
-5.159641
 20
20.938858
 30
0.25
 11
-3.039478
 21
20.938858
 31
0.25
  0
LINE
  8
PLAN_1
 62
7
 10
-3.039478
 20
20.938858
 30
0.25
 11
-3.039478
 21
23.059021
 31
0.25
  0
LINE
  8
PLAN_1
 62
7
 10
-3.039478
 20
23.059021
 30
0.25
 11
-5.159641
 21
23.059021
 31
0.25
  0
LINE
  8
PLAN_1
 62
7
 10
-5.159641
 20
23.059021
 30
0.25
 11
-5.159641
 21
20.938858
 31
0.25
  0
LINE
  8
PLAN_1
 62
7
 10
-8.119476
 20
20.938858
 30
0.25
 11
-8.119476
 21
23.059021
 31
0.25
  0
LINE
  8
PLAN_1
 62
7
 10
-8.119476
 20
23.059021
 30
0.25
 11
-10.239639
 21
23.059021
 31
0.25
  0
LINE
  8
PLAN_1
 62
7
 10
-10.239639
 20
23.059021
 30
0.25
 11
-10.239639
 21
20.938858
 31
0.25
  0
LINE
  8
PLAN_1
 62
7
 10
-10.239639
 20
20.938858
 30
0.25
 11
-8.119476
 21
20.938858
 31
0.25
  0
LINE
  8
PLAN_1
 62
7
 10
-10.659477
 20
20.938858
 30
0.25
 11
-10.659477
 21
23.059021
 31
0.25
  0
LINE
  8
PLAN_1
 62
7
 10
-10.659477
 20
23.059021
 30
0.25
 11
-12.77964
 21
23.059021
 31
0.25
  0
LINE
  8
PLAN_1
 62
7
 10
-12.77964
 20
23.059021
 30
0.25
 11
-12.77964
 21
20.938858
 31
0.25
  0
LINE
  8
PLAN_1
 62
7
 10
-12.77964
 20
20.938858
 30
0.25
 11
-10.659477
 21
20.938858
 31
0.25
  0
LINE
  8
PLAN_1
 62
7
 10
-13.199478
 20
20.938858
 30
0.25
 11
-13.199478
 21
23.059021
 31
0.25
  0
LINE
  8
PLAN_1
 62
7
 10
-13.199478
 20
23.059021
 30
0.25
 11
-15.319641
 21
23.059021
 31
0.25
  0
LINE
  8
PLAN_1
 62
7
 10
-15.319641
 20
23.059021
 30
0.25
 11
-15.319641
 21
20.938858
 31
0.25
  0
LINE
  8
PLAN_1
 62
7
 10
-15.319641
 20
20.938858
 30
0.25
 11
-13.199478
 21
20.938858
 31
0.25
  0
LINE
  8
PLAN_1
 62
7
 10
-15.739479
 20
20.938858
 30
0.25
 11
-15.739479
 21
23.059021
 31
0.25
  0
LINE
  8
PLAN_1
 62
7
 10
-15.739479
 20
23.059021
 30
0.25
 11
-17.859642
 21
23.059021
 31
0.25
  0
LINE
  8
PLAN_1
 62
7
 10
-17.859642
 20
23.059021
 30
0.25
 11
-17.859642
 21
20.938858
 31
0.25
  0
LINE
  8
PLAN_1
 62
7
 10
-17.859642
 20
20.938858
 30
0.25
 11
-15.739479
 21
20.938858
 31
0.25
  0
LINE
  8
PLAN_1
 62
7
 10
-18.279476
 20
20.938858
 30
0.25
 11
-18.279476
 21
23.059021
 31
0.25
  0
LINE
  8
PLAN_1
 62
7
 10
-18.279476
 20
23.059021
 30
0.25
 11
-20.399639
 21
23.059021
 31
0.25
  0
LINE
  8
PLAN_1
 62
7
 10
-20.399639
 20
23.059021
 30
0.25
 11
-20.399639
 21
20.938858
 31
0.25
  0
LINE
  8
PLAN_1
 62
7
 10
-20.399639
 20
20.938858
 30
0.25
 11
-18.279476
 21
20.938858
 31
0.25
  0
LINE
  8
PLAN_1
 62
7
 10
11.609432
 20
20.918533
 30
0.25
 11
13.729595
 21
20.918533
 31
0.25
  0
LINE
  8
PLAN_1
 62
7
 10
13.729595
 20
20.918533
 30
0.25
 11
13.729595
 21
23.038696
 31
0.25
  0
LINE
  8
PLAN_1
 62
7
 10
13.729595
 20
23.038696
 30
0.25
 11
11.609432
 21
23.038696
 31
0.25
  0
LINE
  8
PLAN_1
 62
7
 10
11.609432
 20
23.038696
 30
0.25
 11
11.609432
 21
20.918533
 31
0.25
  0
LINE
  8
PLAN_1
 62
7
 10
16.689434
 20
20.918533
 30
0.25
 11
18.809597
 21
20.918533
 31
0.25
  0
LINE
  8
PLAN_1
 62
7
 10
18.809597
 20
20.918533
 30
0.25
 11
18.809597
 21
23.038696
 31
0.25
  0
LINE
  8
PLAN_1
 62
7
 10
18.809597
 20
23.038696
 30
0.25
 11
16.689434
 21
23.038696
 31
0.25
  0
LINE
  8
PLAN_1
 62
7
 10
16.689434
 20
23.038696
 30
0.25
 11
16.689434
 21
20.918533
 31
0.25
  0
LINE
  8
PLAN_1
 62
7
 10
19.229435
 20
20.918533
 30
0.25
 11
21.349598
 21
20.918533
 31
0.25
  0
LINE
  8
PLAN_1
 62
7
 10
21.349598
 20
20.918533
 30
0.25
 11
21.349598
 21
23.038696
 31
0.25
  0
LINE
  8
PLAN_1
 62
7
 10
21.349598
 20
23.038696
 30
0.25
 11
19.229435
 21
23.038696
 31
0.25
  0
LINE
  8
PLAN_1
 62
7
 10
19.229435
 20
23.038696
 30
0.25
 11
19.229435
 21
20.918533
 31
0.25
  0
LINE
  8
PLAN_1
 62
7
 10
-5.23748
 20
-15.999458
 30
1.0
 11
-5.137482
 21
-15.999458
 31
1.0
  0
CIRCLE
  8
PLAN_1
 62
7
 10
-5.23748
 20
-15.999458
 30
-2.0
 40
0.1
  0
LINE
  8
PLAN_1
 62
7
 10
-2.697479
 20
-15.999458
 30
1.0
 11
-2.597481
 21
-15.999458
 31
1.0
  0
CIRCLE
  8
PLAN_1
 62
7
 10
-2.697479
 20
-15.999458
 30
1.0
 40
0.1
  0
LINE
  8
PLAN_1
 62
7
 10
-0.157478
 20
-15.999458
 30
1.0
 11
-0.05748
 21
-15.999458
 31
1.0
  0
CIRCLE
  8
PLAN_1
 62
7
 10
-0.157478
 20
-15.999458
 30
1.0
 40
0.1
  0
LINE
  8
PLAN_1
 62
7
 10
-6.517639
 20
-26.398218
 30
1.0
 11
-6.417641
 21
-26.398218
 31
1.0
  0
CIRCLE
  8
PLAN_1
 62
7
 10
-6.517639
 20
-26.398218
 30
1.0
 40
0.1
  0
LINE
  8
PLAN_1
 62
7
 10
-1.457958
 20
-26.398218
 30
1.0
 11
-1.35796
 21
-26.398218
 31
1.0
  0
CIRCLE
  8
PLAN_1
 62
7
 10
-1.457958
 20
-26.398218
 30
1.0
 40
0.1
  0
LINE
  8
PLAN_1
 62
7
 10
-9.05764
 20
-26.398218
 30
1.0
 11
-8.957642
 21
-26.398218
 31
1.0
  0
CIRCLE
  8
PLAN_1
 62
7
 10
-9.05764
 20
-26.398218
 30
1.0
 40
0.1
  0
LINE
  8
PLAN_1
 62
7
 10
-5.0546
 20
-4.28244
 30
1.0
 11
-4.954601
 21
-4.28244
 31
1.0
  0
CIRCLE
  8
PLAN_1
 62
7
 10
-5.0546
 20
-4.28244
 30
1.0
 40
0.1
  0
LINE
  8
PLAN_1
 62
7
 10
-7.594601
 20
-4.28244
 30
1.0
 11
-7.494602
 21
-4.28244
 31
1.0
  0
CIRCLE
  8
PLAN_1
 62
7
 10
-7.594601
 20
-4.28244
 30
1.0
 40
0.1
  0
LINE
  8
PLAN_1
 62
7
 10
-2.514599
 20
-4.28244
 30
1.0
 11
-2.4146
 21
-4.28244
 31
1.0
  0
CIRCLE
  8
PLAN_1
 62
7
 10
-2.514599
 20
-4.28244
 30
1.0
 40
0.1
  0
LINE
  8
PLAN_1
 62
7
 10
1.079498
 20
-26.398218
 30
1.0
 11
1.179497
 21
-26.398218
 31
1.0
  0
CIRCLE
  8
PLAN_1
 62
7
 10
1.079498
 20
-26.398218
 30
1.0
 40
0.1
  0
LINE
  8
PLAN_1
 62
7
 10
-11.597641
 20
-26.398218
 30
1.0
 11
-11.497643
 21
-26.398218
 31
1.0
  0
CIRCLE
  8
PLAN_1
 62
7
 10
-11.597641
 20
-26.398218
 30
1.0
 40
0.1
  0
LINE
  8
PLAN_1
 62
7
 10
-10.134598
 20
-4.28244
 30
1.0
 11
-10.034599
 21
-4.28244
 31
1.0
  0
CIRCLE
  8
PLAN_1
 62
7
 10
-10.134598
 20
-4.28244
 30
1.0
 40
0.1
  0
LINE
  8
PLAN_1
 62
7
 10
0.025398
 20
-4.28244
 30
1.0
 11
0.125397
 21
-4.28244
 31
1.0
  0
CIRCLE
  8
PLAN_1
 62
7
 10
0.025398
 20
-4.28244
 30
1.0
 40
0.1
  0
LINE
  8
PLAN_1
 62
7
 10
3.619499
 20
-26.398218
 30
1.0
 11
3.719498
 21
-26.398218
 31
1.0
  0
CIRCLE
  8
PLAN_1
 62
7
 10
3.619499
 20
-26.398218
 30
1.0
 40
0.1
  0
LINE
  8
PLAN_1
 62
7
 10
-14.137638
 20
-26.398218
 30
1.0
 11
-14.03764
 21
-26.398218
 31
1.0
  0
CIRCLE
  8
PLAN_1
 62
7
 10
-14.137638
 20
-26.398218
 30
1.0
 40
0.1
  0
LINE
  8
PLAN_1
 62
7
 10
-12.674599
 20
-4.28244
 30
1.0
 11
-12.5746
 21
-4.28244
 31
1.0
  0
CIRCLE
  8
PLAN_1
 62
7
 10
-12.674599
 20
-4.28244
 30
1.0
 40
0.1
  0
LINE
  8
PLAN_1
 62
7
 10
2.565399
 20
-4.28244
 30
1.0
 11
2.665398
 21
-4.28244
 31
1.0
  0
CIRCLE
  8
PLAN_1
 62
7
 10
2.565399
 20
-4.28244
 30
1.0
 40
0.1
  0
LINE
  8
PLAN_1
 62
7
 10
-15.2146
 20
-4.28244
 30
1.0
 11
-15.114601
 21
-4.28244
 31
1.0
  0
CIRCLE
  8
PLAN_1
 62
7
 10
-15.2146
 20
-4.28244
 30
1.0
 40
0.1
  0
LINE
  8
PLAN_1
 62
7
 10
6.1595
 20
-26.398218
 30
1.0
 11
6.259499
 21
-26.398218
 31
1.0
  0
CIRCLE
  8
PLAN_1
 62
7
 10
6.1595
 20
-26.398218
 30
1.0
 40
0.1
  0
LINE
  8
PLAN_1
 62
7
 10
-16.677639
 20
-26.398218
 30
1.0
 11
-16.577641
 21
-26.398218
 31
1.0
  0
CIRCLE
  8
PLAN_1
 62
7
 10
-16.677639
 20
-26.398218
 30
1.0
 40
0.1
  0
LINE
  8
PLAN_1
 62
7
 10
5.1054
 20
-4.28244
 30
1.0
 11
5.205399
 21
-4.28244
 31
1.0
  0
CIRCLE
  8
PLAN_1
 62
7
 10
5.1054
 20
-4.28244
 30
1.0
 40
0.1
  0
LINE
  8
PLAN_1
 62
7
 10
-17.754601
 20
-4.28244
 30
1.0
 11
-17.654602
 21
-4.28244
 31
1.0
  0
CIRCLE
  8
PLAN_1
 62
7
 10
-17.754601
 20
-4.28244
 30
1.0
 40
0.1
  0
LINE
  8
PLAN_1
 62
7
 10
8.699497
 20
-26.398218
 30
1.0
 11
8.799496
 21
-26.398218
 31
1.0
  0
CIRCLE
  8
PLAN_1
 62
7
 10
8.699497
 20
-26.398218
 30
1.0
 40
0.1
  0
LINE
  8
PLAN_1
 62
7
 10
-19.21764
 20
-26.398218
 30
1.0
 11
-19.117641
 21
-26.398218
 31
1.0
  0
CIRCLE
  8
PLAN_1
 62
7
 10
-19.21764
 20
-26.398218
 30
1.0
 40
0.1
  0
LINE
  8
PLAN_1
 62
7
 10
-20.294598
 20
-4.28244
 30
1.0
 11
-20.194599
 21
-4.28244
 31
1.0
  0
CIRCLE
  8
PLAN_1
 62
7
 10
-20.294598
 20
-4.28244
 30
1.0
 40
0.1
  0
LINE
  8
PLAN_1
 62
7
 10
11.239498
 20
-26.398218
 30
1.0
 11
11.339497
 21
-26.398218
 31
1.0
  0
CIRCLE
  8
PLAN_1
 62
7
 10
11.239498
 20
-26.398218
 30
1.0
 40
0.1
  0
LINE
  8
PLAN_1
 62
7
 10
-22.834599
 20
-4.28244
 30
1.0
 11
-22.734598
 21
-4.28244
 31
1.0
  0
CIRCLE
  8
PLAN_1
 62
7
 10
-22.834599
 20
-4.28244
 30
1.0
 40
0.1
  0
LINE
  8
PLAN_1
 62
7
 10
-25.374599
 20
-4.28244
 30
1.0
 11
-25.274599
 21
-4.28244
 31
1.0
  0
CIRCLE
  8
PLAN_1
 62
7
 10
-25.374599
 20
-4.28244
 30
1.0
 40
0.1
  0
LINE
  8
PLAN_1
 62
7
 10
-27.9146
 20
-4.28244
 30
1.0
 11
-27.8146
 21
-4.28244
 31
1.0
  0
CIRCLE
  8
PLAN_1
 62
7
 10
-27.9146
 20
-4.28244
 30
1.0
 40
0.1
  0
LINE
  8
PLAN_1
 62
7
 10
-30.454597
 20
-4.28244
 30
1.0
 11
-30.354597
 21
-4.28244
 31
1.0
  0
CIRCLE
  8
PLAN_1
 62
7
 10
-30.454597
 20
-4.28244
 30
1.0
 40
0.1
  0
LINE
  8
PLAN_1
 62
7
 10
-32.994598
 20
-4.28244
 30
1.0
 11
-32.8946
 21
-4.28244
 31
1.0
  0
CIRCLE
  8
PLAN_1
 62
7
 10
-32.994598
 20
-4.28244
 30
1.0
 40
0.1
  0
LINE
  8
PLAN_1
 62
7
 10
-35.534595
 20
-4.28244
 30
1.0
 11
-35.434593
 21
-4.28244
 31
1.0
  0
CIRCLE
  8
PLAN_1
 62
7
 10
-35.534595
 20
-4.28244
 30
1.0
 40
0.1
  0
LINE
  8
PLAN_1
 62
7
 10
-38.074596
 20
-4.28244
 30
1.0
 11
-37.974598
 21
-4.28244
 31
1.0
  0
CIRCLE
  8
PLAN_1
 62
7
 10
-38.074596
 20
-4.28244
 30
1.0
 40
0.1
  0
LINE
  8
PLAN_1
 62
7
 10
-4.09956
 20
21.99894
 30
1.0
 11
-3.999561
 21
21.99894
 31
1.0
  0
CIRCLE
  8
PLAN_1
 62
7
 10
-4.09956
 20
21.99894
 30
1.0
 40
0.1
  0
LINE
  8
PLAN_1
 62
7
 10
-6.639561
 20
21.99894
 30
1.0
 11
-6.539562
 21
21.99894
 31
1.0
  0
CIRCLE
  8
PLAN_1
 62
7
 10
-6.639561
 20
21.99894
 30
1.0
 40
0.1
  0
LINE
  8
PLAN_1
 62
7
 10
-1.559559
 20
21.99894
 30
1.0
 11
-1.45956
 21
21.99894
 31
1.0
  0
CIRCLE
  8
PLAN_1
 62
7
 10
-1.559559
 20
21.99894
 30
1.0
 40
0.1
  0
LINE
  8
PLAN_1
 62
7
 10
-9.179558
 20
21.99894
 30
1.0
 11
-9.079559
 21
21.99894
 31
1.0
  0
CIRCLE
  8
PLAN_1
 62
7
 10
-9.179558
 20
21.99894
 30
1.0
 40
0.1
  0
LINE
  8
PLAN_1
 62
7
 10
-11.719559
 20
21.99894
 30
1.0
 11
-11.61956
 21
21.99894
 31
1.0
  0
CIRCLE
  8
PLAN_1
 62
7
 10
-11.719559
 20
21.99894
 30
1.0
 40
0.1
  0
LINE
  8
PLAN_1
 62
7
 10
2.509521
 20
21.978615
 30
1.0
 11
2.60952
 21
21.978615
 31
1.0
  0
CIRCLE
  8
PLAN_1
 62
7
 10
2.509521
 20
21.978615
 30
1.0
 40
0.1
  0
LINE
  8
PLAN_1
 62
7
 10
-14.25956
 20
21.99894
 30
1.0
 11
-14.159561
 21
21.99894
 31
1.0
  0
CIRCLE
  8
PLAN_1
 62
7
 10
-14.25956
 20
21.99894
 30
1.0
 40
0.1
  0
LINE
  8
PLAN_1
 62
7
 10
5.049519
 20
21.978615
 30
1.0
 11
5.149517
 21
21.978615
 31
1.0
  0
CIRCLE
  8
PLAN_1
 62
7
 10
5.049519
 20
21.978615
 30
1.0
 40
0.1
  0
LINE
  8
PLAN_1
 62
7
 10
-16.799561
 20
21.99894
 30
1.0
 11
-16.699562
 21
21.99894
 31
1.0
  0
CIRCLE
  8
PLAN_1
 62
7
 10
-16.799561
 20
21.99894
 30
1.0
 40
0.1
  0
LINE
  8
PLAN_1
 62
7
 10
7.58952
 20
21.978615
 30
1.0
 11
7.689518
 21
21.978615
 31
1.0
  0
CIRCLE
  8
PLAN_1
 62
7
 10
7.58952
 20
21.978615
 30
1.0
 40
0.1
  0
LINE
  8
PLAN_1
 62
7
 10
-19.339558
 20
21.99894
 30
1.0
 11
-19.239559
 21
21.99894
 31
1.0
  0
CIRCLE
  8
PLAN_1
 62
7
 10
-19.339558
 20
21.99894
 30
1.0
 40
0.1
  0
LINE
  8
PLAN_1
 62
7
 10
10.12952
 20
21.978615
 30
1.0
 11
10.229519
 21
21.978615
 31
1.0
  0
CIRCLE
  8
PLAN_1
 62
7
 10
10.12952
 20
21.978615
 30
1.0
 40
0.1
  0
LINE
  8
PLAN_1
 62
7
 10
12.669514
 20
21.978615
 30
1.0
 11
12.769512
 21
21.978615
 31
1.0
  0
CIRCLE
  8
PLAN_1
 62
7
 10
12.669514
 20
21.978615
 30
1.0
 40
0.1
  0
LINE
  8
PLAN_1
 62
7
 10
15.209515
 20
21.978615
 30
1.0
 11
15.309513
 21
21.978615
 31
1.0
  0
CIRCLE
  8
PLAN_1
 62
7
 10
15.209515
 20
21.978615
 30
1.0
 40
0.1
  0
LINE
  8
PLAN_1
 62
7
 10
17.749516
 20
21.978615
 30
1.0
 11
17.849514
 21
21.978615
 31
1.0
  0
CIRCLE
  8
PLAN_1
 62
7
 10
17.749516
 20
21.978615
 30
1.0
 40
0.1
  0
LINE
  8
PLAN_1
 62
7
 10
20.289516
 20
21.978615
 30
1.0
 11
20.389515
 21
21.978615
 31
1.0
  0
CIRCLE
  8
PLAN_1
 62
7
 10
20.289516
 20
21.978615
 30
1.0
 40
0.1
  0
ENDSEC
  0
EOF
