  0
SECTION
  2
HEADER
  9
$ACADVER
  1
AC2.10
  0
ENDSEC
  0
SECTION
  2
TABLES
  0
TABLE
  2
LAYER
 70
     8
  0
LAYER
  2
0
 62
     7
 70
0
  6
CONTINUOUS
  0
LAYER
  2
1
 62
     1
 70
0
  6
CONTINUOUS
  0
LAYER
  2
2
 62
     2
 70
0
  6
CONTINUOUS
  0
LAYER
  2
3
 62
     3
 70
0
  6
CONTINUOUS
  0
LAYER
  2
4
 62
     4
 70
0
  6
CONTINUOUS
  0
LAYER
  2
5
 62
     5
 70
0
  6
CONTINUOUS
  0
LAYER
  2
6
 62
     6
 70
0
  6
CONTINUOUS
  0
LAYER
  2
7
 62
     7
 70
0
  6
CONTINUOUS
  0
ENDTAB
  0
TABLE
  2
STYLE
 70
     1
  0
STYLE
 70
     0
  2
STANDARD
  3
TXT
 40
0.00
 41
1.00
 42
1.00
 50
0.00
 71
     0
  0
ENDTAB
  0
ENDSEC
  0
SECTION
  2
BLOCKS
  0
BLOCK
  8
0
  2
EPAD
 70
0
 10
0.0
 20
0.0
  0
POLYLINE
  8
0
 66
1
 70
1
 40
0.5
 41
0.5
  0
VERTEX
  8
0
 10
-0.25
 20
0.0
 42
1.0
  0
VERTEX
  8
0
 10
0.25
 20
0.0
 42
1.0
  0
SEQEND
  8
0
  0
ENDBLK
  8
0
  0
BLOCK
  8
0
  2
RPAD
 70
0
 10
0.0
 20
0.0
  0
TRACE
  8
0
 10
-0.5
 20
-0.5
 11
-0.5
 21
0.5
 12
0.5
 22
-0.5
 13
0.5
 23
0.5
  0
ENDBLK
  8
0
  0
ENDSEC
0
SECTION
2
ENTITIES
0
POLYLINE
8
0
66
1
40
0.029000
41
0.029000
0
VERTEX
8
0
10
0.448000
20
-0.225000
0
VERTEX
8
0
10
0.448000
20
-0.144000
0
SEQEND
8
0
0
POLYLINE
8
0
66
1
40
0.029000
41
0.029000
0
VERTEX
8
0
10
0.448000
20
-0.225000
0
VERTEX
8
0
10
0.448000
20
-0.322000
0
VERTEX
8
0
10
0.448000
20
-0.400000
0
SEQEND
8
0
0
POLYLINE
8
0
66
1
40
0.029000
41
0.029000
0
VERTEX
8
0
10
-0.651000
20
-0.144000
0
VERTEX
8
0
10
-0.668000
20
-0.127000
0
VERTEX
8
0
10
-0.668000
20
0.957000
0
VERTEX
8
0
10
-0.558000
20
1.067000
0
VERTEX
8
0
10
0.429000
20
1.067000
0
VERTEX
8
0
10
0.546000
20
0.950000
0
VERTEX
8
0
10
0.546000
20
0.889000
0
SEQEND
8
0
0
POLYLINE
8
0
66
1
40
0.029000
41
0.029000
0
VERTEX
8
0
10
-0.551000
20
-0.144000
0
VERTEX
8
0
10
-0.551000
20
0.924000
0
VERTEX
8
0
10
-0.471000
20
1.004000
0
VERTEX
8
0
10
0.331000
20
1.004000
0
VERTEX
8
0
10
0.446000
20
0.889000
0
SEQEND
8
0
0
POLYLINE
8
0
66
1
40
0.029000
41
0.029000
0
VERTEX
8
0
10
-0.751000
20
-0.144000
0
VERTEX
8
0
10
-0.751000
20
1.030000
0
VERTEX
8
0
10
-0.651000
20
1.130000
0
VERTEX
8
0
10
0.485000
20
1.130000
0
VERTEX
8
0
10
0.646000
20
0.969000
0
VERTEX
8
0
10
0.646000
20
0.889000
0
SEQEND
8
0
0
POLYLINE
8
0
66
1
40
0.029000
41
0.029000
0
VERTEX
8
0
10
0.448000
20
-0.400000
0
VERTEX
8
0
10
0.448000
20
-0.483000
0
SEQEND
8
0
0
POLYLINE
8
0
66
1
40
0.029000
41
0.029000
0
VERTEX
8
0
10
0.448000
20
-0.688000
0
VERTEX
8
0
10
0.448000
20
-0.715000
0
VERTEX
8
0
10
-0.851000
20
-0.715000
0
VERTEX
8
0
10
-0.851000
20
-0.144000
0
SEQEND
8
0
0
POLYLINE
8
0
66
1
40
0.040000
41
0.040000
0
VERTEX
8
0
10
0.490000
20
-1.015000
0
VERTEX
8
0
10
0.490000
20
-1.075000
0
SEQEND
8
0
0
POLYLINE
8
0
66
1
40
0.040000
41
0.040000
0
VERTEX
8
0
10
0.390000
20
-1.110000
0
VERTEX
8
0
10
0.390000
20
-1.015000
0
SEQEND
8
0
0
POLYLINE
8
0
66
1
40
0.040000
41
0.040000
0
VERTEX
8
0
10
0.490000
20
-1.075000
0
VERTEX
8
0
10
0.490000
20
-1.125000
0
SEQEND
8
0
0
POLYLINE
8
0
66
1
40
0.040000
41
0.040000
0
VERTEX
8
0
10
0.390000
20
-1.125000
0
VERTEX
8
0
10
0.390000
20
-1.110000
0
SEQEND
8
0
0
POLYLINE
8
0
66
1
40
0.029000
41
0.029000
0
VERTEX
8
0
10
0.490000
20
-1.125000
0
VERTEX
8
0
10
0.390000
20
-1.125000
0
SEQEND
8
0
0
POLYLINE
8
0
66
1
40
0.029000
41
0.029000
0
VERTEX
8
0
10
-0.951000
20
-0.144000
0
VERTEX
8
0
10
-0.948000
20
-1.017000
0
VERTEX
8
0
10
-0.847000
20
-1.118000
0
VERTEX
8
0
10
0.390000
20
-1.125000
0
SEQEND
8
0
0
POLYLINE
8
0
66
1
40
0.029000
41
0.029000
0
VERTEX
8
0
10
0.448000
20
-0.483000
0
VERTEX
8
0
10
0.448000
20
-0.578000
0
SEQEND
8
0
0
POLYLINE
8
0
66
1
40
0.029000
41
0.029000
0
VERTEX
8
0
10
0.341000
20
-0.605000
0
VERTEX
8
0
10
0.448000
20
-0.605000
0
VERTEX
8
0
10
0.448000
20
-0.578000
0
SEQEND
8
0
0
POLYLINE
8
0
66
1
40
0.029000
41
0.029000
0
VERTEX
8
0
10
0.448000
20
-0.605000
0
VERTEX
8
0
10
0.448000
20
-0.688000
0
SEQEND
8
0
0
POLYLINE
8
0
66
1
40
0.029000
41
0.029000
0
VERTEX
8
0
10
0.241000
20
-0.605000
0
VERTEX
8
0
10
0.241000
20
-0.357000
0
VERTEX
8
0
10
0.347000
20
-0.251000
0
VERTEX
8
0
10
0.347000
20
-0.144000
0
VERTEX
8
0
10
0.348000
20
-0.144000
0
SEQEND
8
0
0
POLYLINE
8
0
66
1
40
0.029000
41
0.029000
0
VERTEX
8
0
10
0.141000
20
-0.605000
0
VERTEX
8
0
10
0.150000
20
-0.562000
0
VERTEX
8
0
10
0.150000
20
-0.144000
0
VERTEX
8
0
10
0.148000
20
-0.144000
0
SEQEND
8
0
0
POLYLINE
8
0
66
1
40
0.029000
41
0.029000
0
VERTEX
8
0
10
0.490000
20
-1.125000
0
VERTEX
8
0
10
0.851000
20
-1.125000
0
VERTEX
8
0
10
0.902000
20
-1.078000
0
VERTEX
8
0
10
0.902000
20
-0.916000
0
VERTEX
8
0
10
0.753000
20
-0.916000
0
VERTEX
8
0
10
0.544000
20
-0.672000
0
VERTEX
8
0
10
0.544000
20
-0.146000
0
VERTEX
8
0
10
0.548000
20
-0.144000
0
SEQEND
8
0
0
POLYLINE
8
0
66
1
40
0.029000
41
0.029000
0
VERTEX
8
0
10
0.448000
20
-0.715000
0
VERTEX
8
0
10
0.590000
20
-0.896000
0
VERTEX
8
0
10
0.590000
20
-1.015000
0
SEQEND
8
0
0
POLYLINE
8
0
66
1
40
0.040000
41
0.040000
0
VERTEX
8
0
10
0.946000
20
0.889000
0
VERTEX
8
0
10
0.918000
20
0.780000
0
VERTEX
8
0
10
0.251000
20
0.276000
0
VERTEX
8
0
10
0.248000
20
0.062000
0
VERTEX
8
0
10
0.248000
20
-0.144000
0
SEQEND
8
0
0
POLYLINE
8
0
66
1
40
0.040000
41
0.040000
0
VERTEX
8
0
10
0.746000
20
0.889000
0
VERTEX
8
0
10
0.718000
20
0.803000
0
VERTEX
8
0
10
0.052000
20
0.335000
0
VERTEX
8
0
10
0.049000
20
0.067000
0
VERTEX
8
0
10
0.048000
20
0.040000
0
VERTEX
8
0
10
0.048000
20
-0.144000
0
SEQEND
8
0
0
POLYLINE
8
0
66
1
40
0.040000
41
0.040000
0
VERTEX
8
0
10
-0.451000
20
-0.144000
0
VERTEX
8
0
10
-0.453000
20
0.300000
0
VERTEX
8
0
10
-0.069000
20
0.567000
0
VERTEX
8
0
10
0.257000
20
0.795000
0
VERTEX
8
0
10
0.286000
20
0.890000
0
SEQEND
8
0
0
INSERT
8
0
2
RPAD
10
0.090000
20
-1.015000
41
0.079000
42
0.079000
50
0.000000
0
INSERT
8
0
2
RPAD
10
-0.009000
20
-1.015000
41
0.079000
42
0.079000
50
0.000000
0
INSERT
8
0
2
RPAD
10
-0.109000
20
-1.015000
41
0.079000
42
0.079000
50
0.000000
0
INSERT
8
0
2
RPAD
10
-0.209000
20
-1.015000
41
0.079000
42
0.079000
50
0.000000
0
INSERT
8
0
2
RPAD
10
-0.309000
20
-1.015000
41
0.079000
42
0.079000
50
0.000000
0
INSERT
8
0
2
RPAD
10
-0.409000
20
-1.015000
41
0.079000
42
0.079000
50
0.000000
0
INSERT
8
0
2
RPAD
10
-0.413000
20
0.890000
41
0.079000
42
0.079000
50
0.000000
0
INSERT
8
0
2
RPAD
10
-0.313000
20
0.890000
41
0.079000
42
0.079000
50
0.000000
0
INSERT
8
0
2
RPAD
10
-0.213000
20
0.890000
41
0.079000
42
0.079000
50
0.000000
0
INSERT
8
0
2
RPAD
10
-0.113000
20
0.890000
41
0.079000
42
0.079000
50
0.000000
0
INSERT
8
0
2
RPAD
10
-0.013000
20
0.890000
41
0.079000
42
0.079000
50
0.000000
0
INSERT
8
0
2
RPAD
10
0.086000
20
0.890000
41
0.079000
42
0.079000
50
0.000000
0
INSERT
8
0
2
RPAD
10
0.186000
20
0.890000
41
0.079000
42
0.079000
50
0.000000
0
INSERT
8
0
2
RPAD
10
0.286000
20
0.890000
41
0.079000
42
0.079000
50
0.000000
0
INSERT
8
0
2
RPAD
10
0.446000
20
0.889000
41
0.079000
42
0.079000
50
0.000000
0
INSERT
8
0
2
RPAD
10
0.546000
20
0.889000
41
0.079000
42
0.079000
50
0.000000
0
INSERT
8
0
2
RPAD
10
0.646000
20
0.889000
41
0.079000
42
0.079000
50
0.000000
0
INSERT
8
0
2
RPAD
10
0.746000
20
0.889000
41
0.079000
42
0.079000
50
0.000000
0
INSERT
8
0
2
RPAD
10
0.846000
20
0.889000
41
0.079000
42
0.079000
50
0.000000
0
INSERT
8
0
2
RPAD
10
0.946000
20
0.889000
41
0.079000
42
0.079000
50
0.000000
0
INSERT
8
0
2
RPAD
10
0.790000
20
-1.015000
41
0.079000
42
0.079000
50
0.000000
0
INSERT
8
0
2
RPAD
10
0.690000
20
-1.015000
41
0.079000
42
0.079000
50
0.000000
0
INSERT
8
0
2
RPAD
10
0.590000
20
-1.015000
41
0.079000
42
0.079000
50
0.000000
0
INSERT
8
0
2
RPAD
10
0.490000
20
-1.015000
41
0.079000
42
0.079000
50
0.000000
0
INSERT
8
0
2
RPAD
10
0.390000
20
-1.015000
41
0.079000
42
0.079000
50
0.000000
0
INSERT
8
0
2
RPAD
10
0.290000
20
-1.015000
41
0.079000
42
0.079000
50
0.000000
0
INSERT
8
0
2
RPAD
10
0.548000
20
-0.144000
41
0.079000
42
0.079000
50
0.000000
0
INSERT
8
0
2
RPAD
10
0.448000
20
-0.144000
41
0.079000
42
0.079000
50
0.000000
0
INSERT
8
0
2
RPAD
10
0.348000
20
-0.144000
41
0.079000
42
0.079000
50
0.000000
0
INSERT
8
0
2
RPAD
10
0.248000
20
-0.144000
41
0.079000
42
0.079000
50
0.000000
0
INSERT
8
0
2
RPAD
10
0.148000
20
-0.144000
41
0.079000
42
0.079000
50
0.000000
0
INSERT
8
0
2
RPAD
10
0.048000
20
-0.144000
41
0.079000
42
0.079000
50
0.000000
0
INSERT
8
0
2
RPAD
10
-0.051000
20
-0.144000
41
0.079000
42
0.079000
50
0.000000
0
INSERT
8
0
2
RPAD
10
-0.151000
20
-0.144000
41
0.079000
42
0.079000
50
0.000000
0
INSERT
8
0
2
RPAD
10
-0.251000
20
-0.144000
41
0.079000
42
0.079000
50
0.000000
0
INSERT
8
0
2
RPAD
10
-0.351000
20
-0.144000
41
0.079000
42
0.079000
50
0.000000
0
INSERT
8
0
2
RPAD
10
-0.451000
20
-0.144000
41
0.079000
42
0.079000
50
0.000000
0
INSERT
8
0
2
RPAD
10
-0.551000
20
-0.144000
41
0.079000
42
0.079000
50
0.000000
0
INSERT
8
0
2
RPAD
10
-0.651000
20
-0.144000
41
0.079000
42
0.079000
50
0.000000
0
INSERT
8
0
2
RPAD
10
-0.751000
20
-0.144000
41
0.079000
42
0.079000
50
0.000000
0
INSERT
8
0
2
RPAD
10
-0.851000
20
-0.144000
41
0.079000
42
0.079000
50
0.000000
0
INSERT
8
0
2
RPAD
10
-0.951000
20
-0.144000
41
0.079000
42
0.079000
50
0.000000
0
INSERT
8
0
2
EPAD
10
0.341000
20
-0.605000
41
0.079000
42
0.079000
0
INSERT
8
0
2
EPAD
10
0.141000
20
-0.605000
41
0.079000
42
0.079000
0
INSERT
8
0
2
EPAD
10
0.241000
20
-0.605000
41
0.079000
42
0.079000
0
ENDSEC
0
EOF

