M48
INCH
T01C0.0400
T02C0.0300
T03C0.0450
T04C0.0600
T05C0.1181
%
T01
X+004885Y-009460
X+003885Y-009460
X+002885Y-009460
X+001885Y-009460
X+000885Y-009460
X-000114Y-009460
X+011885Y-009460
X+010885Y-009460
X+009885Y-009460
X+008885Y-009460
X+007885Y-009460
X+006885Y-009460
X-000232Y+009657
X+000767Y+009657
X+001767Y+009657
X+002767Y+009657
X+003767Y+009657
X+004767Y+009657
X+005767Y+009657
X+006767Y+009657
X+008452Y+009657
X+009452Y+009657
X+010452Y+009657
X+011452Y+009657
X+012452Y+009657
X+013452Y+009657
X+014452Y+009657
X+015452Y+009657
X-005258Y+010553
X-005258Y+009553
X-007950Y+003694
X-008950Y+003694
X-012996Y-009984
X-011996Y-009984
X-010996Y-009984
X+009246Y+007147
X+008246Y+007147
X+007246Y+007147
X+013496Y-003503
X+013496Y-004503
X+013496Y-005503
X-004251Y+007165
X-005251Y+007165
T02
X-016192Y-007913
X-016181Y-006456
X-016153Y-004881
X-016141Y-003464
X-008519Y-006909
X-008519Y-009909
X+008169Y-001500
X+007169Y-001500
X+008181Y-004448
X+007181Y-004448
X+010629Y-001476
X+010629Y-005476
X-009114Y-000460
X-013114Y-000460
X-013114Y+001539
X-009114Y+001539
X-000240Y-000539
X+003759Y-000539
X-007614Y-000460
X-007614Y+000539
X-004614Y+000539
X-004614Y-000460
X+012102Y+000129
X+008102Y+000129
X-000248Y+007169
X+003751Y+007169
X+000377Y+010893
X-003622Y+010893
X+006070Y+004956
X+010070Y+004956
X+001330Y-003457
X-002669Y-003457
X-009614Y-003460
X-013614Y-003460
X-009417Y-008326
X-014417Y-008326
X-009614Y-005460
X-013614Y-005460
X+013531Y+003377
X+013531Y+005377
X+013531Y+004377
X-004614Y-003460
X-004614Y-004460
X-004614Y-005460
X-007614Y-005460
X-007614Y-004460
X-007614Y-003460
T03
X-013114Y+005539
X-011114Y+003539
X-011114Y+005539
X-013114Y+003539
T04
X-002692Y-009208
X-004662Y-009208
X+013551Y-000979
X+013551Y+000990
X-012114Y+009039
X-010144Y+009039
T05
X-002362Y+001929
X-015511Y+009881
M30
